<svg width="24" height="25" viewBox="0 0 24 25" fill="none" xmlns="http://www.w3.org/2000/svg">
<path fill-rule="evenodd" clip-rule="evenodd" d="M11.565 5.35591C11.7579 5.02513 12.2358 5.02507 12.4288 5.3558L20.894 19.8635C21.0885 20.1968 20.8481 20.6155 20.4621 20.6155H19.425C19.2456 20.6155 19.0799 20.5193 18.9909 20.3635L12.4362 8.89206C12.2443 8.55616 11.7599 8.55613 11.568 8.89202L5.01302 20.3613C4.92399 20.517 4.75833 20.6132 4.57891 20.6132H3.53786C3.15199 20.6132 2.91156 20.1946 3.10594 19.8613L11.565 5.35591ZM11.9993 16.2102C11.1708 16.2102 10.4993 15.5386 10.4993 14.7102C10.4993 13.8818 11.1708 13.2102 11.9993 13.2102C12.8277 13.2102 13.4993 13.8818 13.4993 14.7102C13.4993 15.5386 12.8277 16.2102 11.9993 16.2102ZM12.9993 18.1043C12.9993 17.8281 12.7754 17.6043 12.4993 17.6043H11.4993C11.2231 17.6043 10.9993 17.8281 10.9993 18.1043V20.1043C10.9993 20.3804 11.2231 20.6043 11.4993 20.6043H12.4993C12.7754 20.6043 12.9993 20.3804 12.9993 20.1043V18.1043Z" fill="black"/>
</svg>
