<svg width="24" height="25" viewBox="0 0 24 25" fill="none" xmlns="http://www.w3.org/2000/svg">
<path d="M5.58819 21.2308L6.01368 20.5923C6.17789 20.3458 6.51825 20.2963 6.76316 20.4628C9.62038 22.4053 14.5695 22.3543 17.1637 20.4834C17.4059 20.3087 17.7518 20.3444 17.926 20.5869L18.3869 21.2287C18.5608 21.4708 18.4856 21.8107 18.2233 21.9524C13.4107 24.5508 10.5245 24.484 5.76419 21.9421C5.50629 21.8044 5.42607 21.4741 5.58819 21.2308Z" fill="black"/>
<path d="M6.69469 19.4861L7.06656 18.9309C7.21844 18.7041 7.52369 18.6425 7.76065 18.778C10.5125 20.3505 13.8509 20.3351 16.2154 18.8314C16.4617 18.6748 16.7945 18.7325 16.952 18.9783L17.2791 19.489C17.4396 19.7396 17.346 20.0752 17.0768 20.2021C13.2536 22.0039 10.7233 22.0153 6.89106 20.2073C6.61838 20.0786 6.5269 19.7366 6.69469 19.4861Z" fill="black"/>
<path fill-rule="evenodd" clip-rule="evenodd" d="M20 10.875C20 15.2933 16.4183 18.875 12 18.875C7.58172 18.875 4 15.2933 4 10.875C4 6.45672 7.58172 2.875 12 2.875C16.4183 2.875 20 6.45672 20 10.875ZM16.6182 14.3028C15.3879 16.0037 13.5089 16.9575 11.5649 17.0706C11.6975 17.0623 14.3052 16.8646 16.1468 14.0169C18.0369 11.0943 17.5798 8.34436 17.5798 8.34436C18.1967 10.3004 17.9126 12.5133 16.6182 14.3028ZM10.1446 11.228C10.1446 11.228 10.1446 9.7158 9.32645 8.89761C8.50827 8.07943 7 8.0973 7 8.0973C7 8.0973 8.50827 8.06644 9.32645 7.24825C10.1446 6.43007 10.1446 4.87498 10.1446 4.87498C10.1446 4.87498 10.1637 6.47514 10.9368 7.24825C11.71 8.02137 13.3633 8.0973 13.3633 8.0973C13.3633 8.0973 11.7291 8.1054 10.9368 8.89761C10.1446 9.68982 10.1446 11.228 10.1446 11.228ZM7.46478 12.7608C7.97993 13.2759 7.97993 14.228 7.97993 14.228C7.97993 14.228 7.97993 13.2595 8.47872 12.7608C8.97751 12.262 10.0065 12.2569 10.0065 12.2569C10.0065 12.2569 8.96549 12.2091 8.47872 11.7223C7.99195 11.2355 7.97993 10.228 7.97993 10.228C7.97993 10.228 7.97993 11.2071 7.46478 11.7223C6.94963 12.2374 6 12.2569 6 12.2569C6 12.2569 6.94963 12.2456 7.46478 12.7608ZM9.99478 15.875C9.99478 15.875 9.99478 15.3989 9.73721 15.1414C9.47964 14.8838 9.00482 14.8894 9.00482 14.8894C9.00482 14.8894 9.47964 14.8797 9.73721 14.6221C9.99478 14.3646 9.99478 13.875 9.99478 13.875C9.99478 13.875 10.0008 14.3787 10.2442 14.6221C10.4876 14.8655 11.0081 14.8894 11.0081 14.8894C11.0081 14.8894 10.4936 14.892 10.2442 15.1414C9.99478 15.3908 9.99478 15.875 9.99478 15.875Z" fill="black"/>
</svg>
