<svg width="24" height="25" viewBox="0 0 24 25" fill="none" xmlns="http://www.w3.org/2000/svg">
<path fill-rule="evenodd" clip-rule="evenodd" d="M11.9977 3.47552L12.8643 4.98066L22.1413 21.094L23.0043 22.5929H21.2746H2.71915H0.98938L1.85255 21.0939L11.131 4.9806L11.9977 3.47552ZM4.44891 20.5929H19.545L17.2693 16.6402C16.3314 16.0054 15.1708 15.5206 13.8057 15.2914C13.9283 15.5505 13.9969 15.8402 13.9969 16.1459C13.9969 17.2504 13.1014 18.1459 11.9969 18.1459C10.8923 18.1459 9.99686 17.2504 9.99686 16.1459C9.99686 15.8404 10.0653 15.551 10.1877 15.292C8.79306 15.5251 7.63359 16.0224 6.70293 16.6785L4.44891 20.5929ZM8.449 13.6463L11.9976 7.4837L15.5453 13.6458C14.4724 13.3243 13.2898 13.1459 12.0121 13.1459C10.7135 13.1459 9.52333 13.3231 8.449 13.6463Z" fill="black"/>
</svg>
