<svg width="24" height="25" viewBox="0 0 24 25" fill="none" xmlns="http://www.w3.org/2000/svg">
<path fill-rule="evenodd" clip-rule="evenodd" d="M12.2017 9.24467V19.9477C14.9993 16.7122 20.9095 17.7767 20.9095 17.7767V5.73616C19.0186 5.15614 14.7306 5.43623 12.2017 9.24467ZM21.4234 7.63484V18.2907C21.4234 18.2907 15.7335 17.1894 12.7595 19.9477C13.6751 19.7019 16.2514 19.6627 18.603 19.6269C20.964 19.5909 23.0984 19.5584 23.0984 19.3239V7.14343C23.0984 6.9201 22.16 7.32115 21.6446 7.54144C21.5561 7.57926 21.4801 7.61175 21.4234 7.63484ZM13.0027 9.93848V18.2393C15.7335 16.0147 20.0652 16.6388 20.0652 16.6388V6.74999C16.8715 6.28678 13.8114 8.09668 13.0027 9.93848Z" fill="black"/>
<path fill-rule="evenodd" clip-rule="evenodd" d="M11.8968 9.24467V19.9477C9.0991 16.7122 3.18893 17.7767 3.18893 17.7767V5.73616C5.07977 5.15614 9.36782 5.43623 11.8968 9.24467ZM2.675 7.63484V18.2907C2.675 18.2907 8.36492 17.1894 11.3389 19.9477C10.4234 19.7019 7.84702 19.6627 5.49539 19.6269C3.13446 19.5909 1 19.5584 1 19.3239V7.14343C1 6.93787 2.02327 7.36388 2.51965 7.57054C2.58022 7.59575 2.63294 7.6177 2.675 7.63484ZM11.0957 9.93848V18.2393C8.36492 16.0147 4.03324 16.6388 4.03324 16.6388V6.74999C7.22694 6.28678 10.287 8.09668 11.0957 9.93848Z" fill="black"/>
<path fill-rule="evenodd" clip-rule="evenodd" d="M17.9339 10.2897H15.1339C14.8339 10.2897 14.5339 9.98966 14.5339 9.68966C14.5339 9.38966 14.8339 9.08966 15.1339 9.08966H17.9339C18.2339 9.08966 18.5339 9.38966 18.5339 9.68966C18.5339 9.98966 18.2339 10.2897 17.9339 10.2897Z" fill="black"/>
<path fill-rule="evenodd" clip-rule="evenodd" d="M17.9339 13.058H15.1339C14.8339 13.058 14.5339 12.758 14.5339 12.458C14.5339 12.158 14.8339 11.858 15.1339 11.858H17.9339C18.2339 11.858 18.5339 12.158 18.5339 12.458C18.5339 12.758 18.2339 13.058 17.9339 13.058Z" fill="black"/>
<path fill-rule="evenodd" clip-rule="evenodd" d="M17.9339 15.8263H15.1339C14.8339 15.8263 14.5339 15.5263 14.5339 15.2263C14.5339 14.9263 14.8339 14.6263 15.1339 14.6263H17.9339C18.2339 14.6263 18.5339 14.9263 18.5339 15.2263C18.5339 15.5263 18.2339 15.8263 17.9339 15.8263Z" fill="black"/>
<path fill-rule="evenodd" clip-rule="evenodd" d="M6.91924 11.5564C7.54364 10.932 7.54364 9.77795 7.54364 9.77795C7.54364 9.77795 7.54364 10.9518 8.14821 11.5564C8.75279 12.161 9.99999 12.1672 9.99999 12.1672C9.99999 12.1672 8.73822 12.2251 8.14821 12.8151C7.55821 13.4051 7.54364 14.6263 7.54364 14.6263C7.54364 14.6263 7.54364 13.4395 6.91924 12.8151C6.29484 12.1907 5.1438 12.1672 5.1438 12.1672C5.1438 12.1672 6.29484 12.1808 6.91924 11.5564Z" fill="black"/>
<path fill-rule="evenodd" clip-rule="evenodd" d="M8.9743 14.726C9.31695 14.3833 9.31695 13.75 9.31695 13.75C9.31695 13.75 9.31695 14.3942 9.64873 14.726C9.9805 15.0577 10.6649 15.0611 10.6649 15.0611C10.6649 15.0611 9.9725 15.0929 9.64873 15.4167C9.32495 15.7405 9.31695 16.4106 9.31695 16.4106C9.31695 16.4106 9.31695 15.7593 8.9743 15.4167C8.63165 15.074 8 15.0611 8 15.0611C8 15.0611 8.63165 15.0686 8.9743 14.726Z" fill="black"/>
<path fill-rule="evenodd" clip-rule="evenodd" d="M5.87384 8.60504C6.21649 8.26239 6.21649 7.62909 6.21649 7.62909C6.21649 7.62909 6.21649 8.27327 6.54826 8.60504C6.88003 8.93682 7.56446 8.94021 7.56446 8.94021C7.56446 8.94021 6.87204 8.97201 6.54826 9.29578C6.22449 9.61956 6.21649 10.2897 6.21649 10.2897C6.21649 10.2897 6.21649 9.63843 5.87384 9.29578C5.53119 8.95313 4.89954 8.94021 4.89954 8.94021C4.89954 8.94021 5.53119 8.94769 5.87384 8.60504Z" fill="black"/>
</svg>
