<svg width="24" height="25" viewBox="0 0 24 25" fill="none" xmlns="http://www.w3.org/2000/svg">
<path fill-rule="evenodd" clip-rule="evenodd" d="M12.2017 11.047V21.75C14.9993 18.5145 20.9095 19.579 20.9095 19.579V7.53847C19.0186 6.95845 14.7306 7.23853 12.2017 11.047ZM21.4234 9.43715V20.093C21.4234 20.093 15.7335 18.9917 12.7595 21.75C13.6751 21.5042 16.2514 21.465 18.603 21.4292C20.964 21.3932 23.0984 21.3607 23.0984 21.1262V8.94574C23.0984 8.72241 22.16 9.12346 21.6446 9.34375C21.5561 9.38157 21.4801 9.41406 21.4234 9.43715ZM13.2927 12.1486V19.1059C15.5815 17.2413 19.2121 17.7644 19.2121 17.7644V9.47616C16.5353 9.08792 13.9705 10.6049 13.2927 12.1486Z" fill="black"/>
<path fill-rule="evenodd" clip-rule="evenodd" d="M11.8968 11.047V21.75C9.0991 18.5145 3.18893 19.579 3.18893 19.579V7.53847C5.07977 6.95845 9.36782 7.23853 11.8968 11.047ZM2.675 9.43715V20.093C2.675 20.093 8.36492 18.9917 11.3389 21.75C10.4234 21.5042 7.84702 21.465 5.49539 21.4292C3.13446 21.3932 1 21.3607 1 21.1262V8.94574C1 8.74018 2.02327 9.16619 2.51965 9.37284C2.58022 9.39806 2.63294 9.42001 2.675 9.43715ZM10.8057 12.1486V19.1059C8.51692 17.2413 4.88634 17.7644 4.88634 17.7644V9.47616C7.56313 9.08792 10.1279 10.6049 10.8057 12.1486Z" fill="black"/>
<path fill-rule="evenodd" clip-rule="evenodd" d="M11.1306 3.66051C11.9624 2.82873 11.9624 1.29138 11.9624 1.29138C11.9624 1.29138 11.9624 2.85514 12.7678 3.66051C13.5732 4.46589 15.2346 4.47413 15.2346 4.47413C15.2346 4.47413 13.5538 4.55132 12.7678 5.33728C11.9818 6.12325 11.9624 7.75 11.9624 7.75C11.9624 7.75 11.9624 6.16907 11.1306 5.33728C10.2988 4.5055 8.7655 4.47413 8.7655 4.47413C8.7655 4.47413 10.2988 4.4923 11.1306 3.66051Z" fill="black"/>
<path fill-rule="evenodd" clip-rule="evenodd" d="M12.7596 7.77478C13.063 7.47132 13.063 6.91046 13.063 6.91046C13.063 6.91046 13.063 7.48096 13.3569 7.77478C13.6507 8.0686 14.2568 8.0716 14.2568 8.0716C14.2568 8.0716 13.6436 8.09976 13.3569 8.3865C13.0701 8.67324 13.063 9.26672 13.063 9.26672C13.063 9.26672 13.063 8.68996 12.7596 8.3865C12.4561 8.08305 11.8967 8.0716 11.8967 8.0716C11.8967 8.0716 12.4561 8.07823 12.7596 7.77478Z" fill="black"/>
<path fill-rule="evenodd" clip-rule="evenodd" d="M9.46089 6.51091C9.84725 6.12455 9.84725 5.41046 9.84725 5.41046C9.84725 5.41046 9.84725 6.13682 10.2213 6.51091C10.5954 6.885 11.3672 6.88883 11.3672 6.88883C11.3672 6.88883 10.5864 6.92468 10.2213 7.28976C9.85627 7.65484 9.84725 8.41046 9.84725 8.41046C9.84725 8.41046 9.84725 7.67612 9.46089 7.28976C9.07453 6.9034 8.3623 6.88883 8.3623 6.88883C8.3623 6.88883 9.07453 6.89727 9.46089 6.51091Z" fill="black"/>
</svg>
