<svg width="24" height="25" viewBox="0 0 24 25" fill="none" xmlns="http://www.w3.org/2000/svg">
<path fill-rule="evenodd" clip-rule="evenodd" d="M12.867 2.82753L12.0005 1.32239L11.1338 2.82747L8.70601 7.04365L3.97953 7.04365H2.2499L3.1129 8.5426L5.4777 12.65L3.11292 16.7568L2.24976 18.2558H3.97952H8.70514L11.1325 22.4719L11.9991 23.9771L12.8657 22.472L15.2935 18.2558H20.02H21.7496L20.8866 16.7568L18.5218 12.6494L20.8866 8.54266L21.7498 7.04365H20.02L15.2944 7.04365L12.867 2.82753ZM12.9866 7.04365L12.0003 5.33057L11.0139 7.04365L12.9866 7.04365ZM9.86223 9.04365L14.1381 9.04365L16.214 12.6493L14.1373 16.2558H9.86146L7.78553 12.6501L9.86223 9.04365ZM7.55435 9.04365H5.70916L6.63169 10.646L7.55435 9.04365ZM6.63155 14.6542L5.70929 16.2558H7.55367L6.63155 14.6542ZM11.0129 18.2558L11.9992 19.9689L12.9857 18.2558H11.0129ZM16.4452 16.2558H18.2904L17.3679 14.6535L16.4452 16.2558ZM17.368 10.6453L16.4459 9.04365H18.2903L17.368 10.6453Z" fill="black"/>
</svg>
