<svg width="24" height="25" viewBox="0 0 24 25" fill="none" xmlns="http://www.w3.org/2000/svg">
<path fill-rule="evenodd" clip-rule="evenodd" d="M4.05298 12.9312C4.05298 12.0155 4.35484 11.3079 4.8134 10.8347C5.26917 10.3645 5.94461 10.0581 6.82662 10.0581C7.56238 10.0581 8.34937 10.5032 9.17748 11.2732C9.75903 11.8138 10.2452 12.3967 10.6913 12.9328C10.272 13.4166 9.75589 13.9729 9.186 14.4647C8.30127 15.2283 7.47962 15.6651 6.82662 15.6651C5.25717 15.6651 4.05298 14.6102 4.05298 12.9312ZM6.82662 8.05814C5.45668 8.05814 4.2453 8.54716 3.37723 9.44282C2.51196 10.3356 2.05298 11.5645 2.05298 12.9312C2.05298 15.8167 4.25735 17.6651 6.82662 17.6651C8.24299 17.6651 9.54141 16.7998 10.4927 15.9788C11.0623 15.4873 11.577 14.9493 12 14.4737C12.423 14.9493 12.9377 15.4873 13.5073 15.9788C14.4586 16.7998 15.757 17.6651 17.1734 17.6651C19.7427 17.6651 21.947 15.8167 21.947 12.9312C21.947 11.5645 21.488 10.3356 20.6228 9.44282C19.7547 8.54716 18.5433 8.05814 17.1734 8.05814C15.6572 8.05814 14.39 8.94439 13.4607 9.80841C12.9224 10.3089 12.4183 10.8826 12 11.3783C11.5817 10.8826 11.0776 10.3089 10.5393 9.80841C9.60997 8.94439 8.34282 8.05814 6.82662 8.05814ZM19.947 12.9312C19.947 12.0155 19.6452 11.3079 19.1866 10.8347C18.7308 10.3645 18.0554 10.0581 17.1734 10.0581C16.4376 10.0581 15.6506 10.5032 14.8225 11.2732C14.241 11.8138 13.7548 12.3967 13.3087 12.9328C13.728 13.4166 14.2441 13.9729 14.814 14.4647C15.6987 15.2283 16.5204 15.6651 17.1734 15.6651C18.7428 15.6651 19.947 14.6102 19.947 12.9312Z" fill="black"/>
</svg>
