<svg width="24" height="25" viewBox="0 0 24 25" fill="none" xmlns="http://www.w3.org/2000/svg">
<path fill-rule="evenodd" clip-rule="evenodd" d="M18.8063 13.1546C18.8063 9.85609 15.6906 6.17013 12 6.81489V3.65491C17.2466 3.65491 21.4997 7.90805 21.4997 13.1546C21.4997 18.4011 17.2466 22.5772 12 22.5772C6.75352 22.5772 2.7854 18.4011 2.7854 13.1546C2.7854 9.92906 5.19297 6.72715 7.93486 5.83041C6.44667 6.97968 4.07674 9.08311 4.07674 13.1546C4.07674 17.226 7.5854 20.6687 12 20.6687C16.4147 20.6687 18.8063 16.453 18.8063 13.1546Z" fill="black"/>
<path fill-rule="evenodd" clip-rule="evenodd" d="M12.7645 3.78478L12.7633 3.78545L12.7645 3.78478ZM11.2366 3.78545L11.2354 3.78478L11.2366 3.78545ZM11.2354 6.50341L11.2366 6.50274L11.2354 6.50341ZM12.7633 6.50274L12.7645 6.50341L12.7633 6.50274ZM12 6.92021C13.7452 6.92021 15.1599 6.12501 15.1599 5.14409C15.1599 4.16317 13.7452 3.36798 12 3.36798C10.2547 3.36798 8.83997 4.16317 8.83997 5.14409C8.83997 6.12501 10.2547 6.92021 12 6.92021Z" fill="black"/>
</svg>
