<svg width="24" height="25" viewBox="0 0 24 25" fill="none" xmlns="http://www.w3.org/2000/svg">
<path fill-rule="evenodd" clip-rule="evenodd" d="M11.9548 2.46271L14.6212 10.2861H23.1684L16.2811 15.1566L19.048 23.2751L11.9586 18.2133L4.82506 23.2579L7.61738 15.1137L0.856079 10.2861H9.27254L11.9548 2.46271ZM8.58682 12.2861H7.09906L8.29424 13.1395L8.58682 12.2861ZM9.99274 14.3522L10.7011 12.2861H13.1898L13.9058 14.3868L11.9642 15.7598L9.99274 14.3522ZM9.31587 16.3264L8.7247 18.0506L10.235 16.9826L9.31587 16.3264ZM13.6878 16.9904L15.1486 18.0335L14.5785 16.3606L13.6878 16.9904ZM15.6084 13.1827L16.8763 12.2861H15.3028L15.6084 13.1827ZM12.5082 10.2861H11.3868L11.9492 8.64587L12.5082 10.2861Z" fill="black"/>
</svg>
