<svg width="24" height="25" viewBox="0 0 24 25" fill="none" xmlns="http://www.w3.org/2000/svg">
<path fill-rule="evenodd" clip-rule="evenodd" d="M9.6748 4.30814C9.6748 3.75585 10.1225 3.30814 10.6748 3.30814H12.6748C13.2271 3.30814 13.6748 3.75585 13.6748 4.30814C13.6748 4.68224 13.4694 5.00836 13.1652 5.17985V7.78057C16.6564 8.47343 19.2883 11.5535 19.2883 15.2482C19.2883 19.453 15.8796 22.8616 11.6748 22.8616C7.47005 22.8616 4.0614 19.453 4.0614 15.2482C4.0614 11.5603 6.68355 8.4848 10.1652 7.78443V5.16871C9.87159 4.99448 9.6748 4.67429 9.6748 4.30814ZM17.2809 14.9586C14.1654 15.8218 8.95382 15.7963 6.06969 14.9405C6.22943 11.9834 8.67786 9.63477 11.6748 9.63477C14.6779 9.63477 17.1302 11.993 17.2809 14.9586ZM11.6587 12.552C11.6587 12.552 11.6587 13.2078 11.3039 13.5627C10.949 13.9175 10.2949 13.9098 10.2949 13.9098C10.2949 13.9098 10.949 13.9231 11.3039 14.278C11.6587 14.6328 11.6587 15.3072 11.6587 15.3072C11.6587 15.3072 11.667 14.6133 12.0023 14.278C12.3376 13.9427 13.0546 13.9098 13.0546 13.9098C13.0546 13.9098 12.3459 13.9062 12.0023 13.5627C11.6587 13.2191 11.6587 12.552 11.6587 12.552ZM12.5633 18.542C13.0334 18.072 13.0334 17.2032 13.0334 17.2032C13.0334 17.2032 13.0334 18.0869 13.4885 18.542C13.9436 18.9971 14.8825 19.0018 14.8825 19.0018C14.8825 19.0018 13.9327 19.0454 13.4885 19.4896C13.0443 19.9337 13.0334 20.853 13.0334 20.853C13.0334 20.853 13.0334 19.9596 12.5633 19.4896C12.0933 19.0195 11.2268 19.0018 11.2268 19.0018C11.2268 19.0018 12.0933 19.0121 12.5633 18.542ZM8.89895 16.2729C8.89895 16.2729 8.89895 16.9287 8.54411 17.2836C8.18927 17.6384 7.53515 17.6306 7.53515 17.6306C7.53515 17.6306 8.18927 17.644 8.54411 17.9989C8.89895 18.3537 8.89895 19.0281 8.89895 19.0281C8.89895 19.0281 8.90723 18.3342 9.24252 17.9989C9.57781 17.6636 10.2949 17.6306 10.2949 17.6306C10.2949 17.6306 9.58609 17.6271 9.24252 17.2836C8.89895 16.94 8.89895 16.2729 8.89895 16.2729Z" fill="black"/>
</svg>
