<svg width="24" height="25" viewBox="0 0 24 25" fill="none" xmlns="http://www.w3.org/2000/svg">
<path d="M2.00239 13.8441C2.59435 11.3285 3.74352 9.68839 6.70344 8.72341C5.71827 4.12896 7.70459 1.88465 8.57516 2.89159C9.44572 3.89853 8.35751 8.96112 8.35751 8.96112C8.35751 8.96112 10.0895 4.64362 12.188 3.52095C14.2865 2.39828 13.436 6.58835 9.21488 9.91026C9.21488 11.7624 10.5453 11.6885 11.1111 11.4181C17.509 8.24286 21.9819 14.6811 21.9999 17.3243C22.0143 19.4389 20.3979 20.6668 19.5878 21.0164C19.9718 22.4005 18.9996 22.6437 17.5982 22.6437C16.6826 22.6437 15.1646 22.6419 14.2341 22.6437C13.0184 22.6461 12.0173 22.7995 12.0173 21.8501C12.0173 20.9007 13.6806 21.2568 14.9075 21.0164C12.4198 21.3036 10.5338 20.9958 9.83278 20.5163C9.37536 20.6388 7.83669 22.606 7.11383 22.606H6.34936C5.63097 22.606 5.02094 21.4195 6.02988 21.0164C6.86441 20.6829 7.37606 19.9202 7.37606 19.7298C7.37606 19.5395 7.21837 19.2377 7.12665 19.1758C5.64805 18.1793 5.47676 16.9887 5.39914 16.2251C3.26476 15.5538 1.93586 14.3049 2.00239 13.8441Z" fill="black"/>
</svg>
