<svg width="24" height="25" viewBox="0 0 24 25" fill="none" xmlns="http://www.w3.org/2000/svg">
<path fill-rule="evenodd" clip-rule="evenodd" d="M5.51954 6.1183H13.5962C13.5515 5.61454 13.561 5.0699 13.6749 4.55457C13.689 4.49082 13.7049 4.4264 13.7229 4.36163H7.01713C6.28557 4.36163 5.87647 4.6998 5.66993 5.1112C5.52027 5.40932 5.46742 5.76879 5.51954 6.1183ZM16.3615 2.36163H7.01713C5.52317 2.36163 4.42571 3.1319 3.88253 4.21388C3.36201 5.25072 3.37131 6.52861 3.91896 7.58019L4.19919 8.1183H8.66373C8.54924 8.56957 8.36441 9.04936 8.11811 9.56015C7.68177 10.465 7.09189 11.3898 6.4648 12.3516C6.4117 12.433 6.35826 12.5148 6.30461 12.5969C5.73972 13.4617 5.15232 14.3609 4.69921 15.2306C4.20742 16.1746 3.80589 17.206 3.80589 18.2438C3.80589 21.2133 5.54374 22.8223 6.62621 23.2821L6.81357 23.3616H16.7181C19.1288 23.3616 21.0044 20.7718 20.2198 17.9737L20.0151 17.2438H15.4136C15.731 15.9441 16.6237 14.6746 17.7012 13.2051C17.7214 13.1774 17.7417 13.1498 17.7621 13.122C18.3856 12.2719 19.055 11.3592 19.5661 10.4111C20.0989 9.42271 20.5 8.32603 20.5 7.1183C20.5 6.33798 20.3644 5.19418 19.7804 4.21031C19.1541 3.15521 18.0506 2.36163 16.3615 2.36163ZM15.363 19.2438C15.4695 19.9237 15.6791 20.4244 15.9086 20.7638C16.247 21.2641 16.5776 21.3616 16.7181 21.3616C17.4595 21.3616 18.4349 20.5565 18.4066 19.2438H15.363ZM13.9467 21.3616C13.5303 20.5329 13.2895 19.4809 13.2895 18.2438C13.2895 15.8384 14.7891 13.7938 16.0328 12.0982C16.0513 12.0728 16.0698 12.0476 16.0883 12.0225L16.1098 11.9932C16.7635 11.1017 17.3613 10.2863 17.8056 9.46208C18.2498 8.63805 18.5 7.87528 18.5 7.1183C18.5 6.514 18.386 5.77947 18.0605 5.23116C17.7773 4.75408 17.3116 4.36163 16.3615 4.36163C16.0453 4.36163 15.917 4.44853 15.8558 4.50535C15.7768 4.57865 15.6863 4.72142 15.6277 4.98619C15.5048 5.54225 15.5986 6.29888 15.7539 6.84437L16.1168 8.1183H10.7084C10.5669 8.919 10.2729 9.69617 9.91961 10.4288C9.41973 11.4655 8.76132 12.4913 8.14013 13.444C8.08951 13.5216 8.03918 13.5987 7.98918 13.6753C7.411 14.5608 6.87798 15.3772 6.47293 16.1547C6.02851 17.0078 5.80589 17.6922 5.80589 18.2438C5.80589 20.1339 6.77136 21.0655 7.25682 21.3616H13.9467Z" fill="black"/>
<path fill-rule="evenodd" clip-rule="evenodd" d="M10.7271 17.3682H7.92712C7.62712 17.3682 7.32712 17.0682 7.32712 16.7682C7.32712 16.4682 7.62712 16.1682 7.92712 16.1682H10.7271C11.0271 16.1682 11.3271 16.4682 11.3271 16.7682C11.3271 17.0682 11.0271 17.3682 10.7271 17.3682Z" fill="black"/>
<path fill-rule="evenodd" clip-rule="evenodd" d="M12.1498 15.2007H9.3498C9.0498 15.2007 8.7498 14.9007 8.7498 14.6007C8.7498 14.3007 9.0498 14.0007 9.3498 14.0007H12.1498C12.4498 14.0007 12.7498 14.3007 12.7498 14.6007C12.7498 14.9007 12.4498 15.2007 12.1498 15.2007Z" fill="black"/>
<path fill-rule="evenodd" clip-rule="evenodd" d="M11.1009 19.6395H8.30093C8.00093 19.6395 7.70093 19.3395 7.70093 19.0395C7.70093 18.7395 8.00093 18.4395 8.30093 18.4395H11.1009C11.4009 18.4395 11.7009 18.7395 11.7009 19.0395C11.7009 19.4395 11.4009 19.6395 11.1009 19.6395Z" fill="black"/>
<path fill-rule="evenodd" clip-rule="evenodd" d="M12.5252 10.3617C13.1496 9.73732 13.1496 8.58327 13.1496 8.58327C13.1496 8.58327 13.1496 9.75715 13.7542 10.3617C14.3588 10.9663 15.606 10.9725 15.606 10.9725C15.606 10.9725 14.3442 11.0304 13.7542 11.6204C13.1642 12.2104 13.1496 13.4316 13.1496 13.4316C13.1496 13.4316 13.1496 12.2448 12.5252 11.6204C11.9008 10.996 10.7498 10.9725 10.7498 10.9725C10.7498 10.9725 11.9008 10.9861 12.5252 10.3617Z" fill="black"/>
</svg>
