<svg width="24" height="25" viewBox="0 0 24 25" fill="none" xmlns="http://www.w3.org/2000/svg">
<path fill-rule="evenodd" clip-rule="evenodd" d="M5.51954 6.1183H9.79904H13.5962C13.5515 5.61454 13.561 5.0699 13.6749 4.55457C13.689 4.49082 13.7049 4.4264 13.7229 4.36163H13.7126H13.6929H13.6731H13.6534H13.6336H13.6138H13.594H13.5741H13.5542H13.5343H13.5144H13.4945H13.4745H13.4545H13.4345H13.4145H13.3945H13.3744H13.3543H13.3342H13.3141H13.2939H13.2738H13.2536H13.2334H13.2132H13.1929H13.1727H13.1524H13.1321H13.1118H13.0914H13.0711H13.0507H13.0304H13.01H12.9896H12.9691H12.9487H12.9282H12.9078H12.8873H12.8668H12.8463H12.8258H12.8052H12.7847H12.7641H12.7435H12.7229H12.7023H12.6817H12.6611H12.6404H12.6198H12.5991H12.5785H12.5578H12.5371H12.5164H12.4957H12.4749H12.4542H12.4335H12.4127H12.3919H12.3712H12.3504H12.3296H12.3088H12.288H12.2672H12.2464H12.2256H12.2048H12.1839H12.1631H12.1422H12.1214H12.1005H12.0797H12.0588H12.0379H12.017H11.9962H11.9753H11.9544H11.9335H11.9126H11.8917H11.8708H11.8499H11.829H11.8081H11.7872H11.7663H11.7454H11.7245H11.7036H11.6826H11.6617H11.6408H11.6199H11.599H11.5781H11.5572H11.5363H11.5154H11.4945H11.4736H11.4527H11.4318H11.4109H11.39H11.3691H11.3482H11.3273H11.3064H11.2856H11.2647H11.2438H11.223H11.2021H11.1813H11.1604H11.1396H11.1188H11.0979H11.0771H11.0563H11.0355H11.0147H10.9939H10.9731H10.9524H10.9316H10.9108H10.8901H10.8693H10.8486H10.8279H10.8072H10.7865H10.7658H10.7451H10.7245H10.7038H10.6831H10.6625H10.6419H10.6213H10.6007H10.5801H10.5595H10.539H10.5184H10.4979H10.4774H10.4569H10.4364H10.4159H10.3954H10.375H10.3545H10.3341H10.3137H10.2933H10.273H10.2526H10.2323H10.212H10.1917H10.1714H10.1511H10.1308H10.1106H10.0904H10.0702H10.05H10.0299H10.0097H9.98962H9.96952H9.94944H9.92938H9.90934H9.88933H9.86933H9.84935H9.8294H9.80947H9.78956H9.76967H9.74981H9.72997H9.71015H9.69035H9.67058H9.65083H9.6311H9.6114H9.59173H9.57207H9.55245H9.53285H9.51327H9.49372H9.47419H9.45469H9.43522H9.41578H9.39636H9.37697H9.3576H9.33826H9.31896H9.29967H9.28042H9.2612H9.242H9.22284H9.2037H9.18459H9.16551H9.14647H9.12745H9.10846H9.08951H9.07058H9.05169H9.03282H9.01399H8.99519H8.97643H8.95769H8.93899H8.92032H8.90169H8.88309H8.86452H8.84598H8.82748H8.80902H8.79059H8.77219H8.75383H8.7355H8.71721H8.69896H8.68074H8.66256H8.64441H8.62631H8.60824H8.5902H8.57221H8.55425H8.53633H8.51844H8.5006H8.4828H8.46503H8.4473H8.42962H8.41197H8.39436H8.37679H8.35927H8.34178H8.32434H8.30693H8.28957H8.27225H8.25497H8.23774H8.22054H8.20339H8.18628H8.16922H8.1522H8.13522H8.11828H8.1014H8.08455H8.06775H8.05099H8.03428H8.01762H8.001H7.98442H7.96789H7.95141H7.93498H7.91859H7.90225H7.88595H7.86971H7.85351H7.83736H7.82126H7.8052H7.7892H7.77324H7.75734H7.74148H7.72567H7.70991H7.69421H7.67855H7.66295H7.64739H7.63189H7.61643H7.60103H7.58569H7.57039H7.55515H7.53995H7.52482H7.50973H7.4947H7.47972H7.4648H7.44993H7.43511H7.42035H7.40564H7.39099H7.3764H7.36186H7.34737H7.33294H7.31857H7.30426H7.29H7.2758H7.26165H7.24757H7.23354H7.21957H7.20565H7.1918H7.178H7.16427H7.15059H7.13697H7.12341H7.10992H7.09648H7.0831H7.06979H7.05653H7.04334H7.0302H7.01713C6.28557 4.36163 5.87647 4.6998 5.66993 5.1112C5.52027 5.40932 5.46742 5.76879 5.51954 6.1183ZM16.3615 2.36163H16.3486H16.3357H16.3227H16.3097H16.2966H16.2834H16.2702H16.2569H16.2436H16.2302H16.2167H16.2032H16.1896H16.176H16.1623H16.1485H16.1347H16.1208H16.1069H16.0929H16.0788H16.0647H16.0505H16.0363H16.022H16.0077H15.9933H15.9788H15.9643H15.9498H15.9352H15.9205H15.9057H15.891H15.8761H15.8612H15.8463H15.8313H15.8162H15.8011H15.786H15.7707H15.7555H15.7402H15.7248H15.7094H15.6939H15.6784H15.6628H15.6472H15.6315H15.6158H15.6H15.5841H15.5683H15.5523H15.5364H15.5203H15.5043H15.4881H15.472H15.4558H15.4395H15.4232H15.4068H15.3904H15.374H15.3574H15.3409H15.3243H15.3077H15.291H15.2743H15.2575H15.2407H15.2238H15.2069H15.1899H15.1729H15.1559H15.1388H15.1217H15.1045H15.0873H15.0701H15.0528H15.0354H15.018H15.0006H14.9832H14.9657H14.9481H14.9305H14.9129H14.8952H14.8775H14.8598H14.842H14.8242H14.8063H14.7884H14.7705H14.7525H14.7345H14.7165H14.6984H14.6802H14.6621H14.6439H14.6256H14.6074H14.5891H14.5707H14.5524H14.5339H14.5155H14.497H14.4785H14.46H14.4414H14.4228H14.4041H14.3854H14.3667H14.348H14.3292H14.3104H14.2915H14.2726H14.2537H14.2348H14.2158H14.1968H14.1778H14.1587H14.1397H14.1205H14.1014H14.0822H14.063H14.0438H14.0245H14.0052H13.9859H13.9665H13.9472H13.9278H13.9083H13.8889H13.8694H13.8499H13.8303H13.8108H13.7912H13.7716H13.7519H13.7323H13.7126H13.6929H13.6731H13.6534H13.6336H13.6138H13.594H13.5741H13.5542H13.5343H13.5144H13.4945H13.4745H13.4545H13.4345H13.4145H13.3945H13.3744H13.3543H13.3342H13.3141H13.2939H13.2738H13.2536H13.2334H13.2132H13.1929H13.1727H13.1524H13.1321H13.1118H13.0914H13.0711H13.0507H13.0304H13.01H12.9896H12.9691H12.9487H12.9282H12.9078H12.8873H12.8668H12.8463H12.8258H12.8052H12.7847H12.7641H12.7435H12.7229H12.7023H12.6817H12.6611H12.6404H12.6198H12.5991H12.5785H12.5578H12.5371H12.5164H12.4957H12.4749H12.4542H12.4335H12.4127H12.3919H12.3712H12.3504H12.3296H12.3088H12.288H12.2672H12.2464H12.2256H12.2048H12.1839H12.1631H12.1422H12.1214H12.1005H12.0797H12.0588H12.0379H12.017H11.9962H11.9753H11.9544H11.9335H11.9126H11.8917H11.8708H11.8499H11.829H11.8081H11.7872H11.7663H11.7454H11.7245H11.7036H11.6826H11.6617H11.6408H11.6199H11.599H11.5781H11.5572H11.5363H11.5154H11.4945H11.4736H11.4527H11.4318H11.4109H11.39H11.3691H11.3482H11.3273H11.3064H11.2856H11.2647H11.2438H11.223H11.2021H11.1813H11.1604H11.1396H11.1188H11.0979H11.0771H11.0563H11.0355H11.0147H10.9939H10.9731H10.9524H10.9316H10.9108H10.8901H10.8693H10.8486H10.8279H10.8072H10.7865H10.7658H10.7451H10.7245H10.7038H10.6831H10.6625H10.6419H10.6213H10.6007H10.5801H10.5595H10.539H10.5184H10.4979H10.4774H10.4569H10.4364H10.4159H10.3954H10.375H10.3545H10.3341H10.3137H10.2933H10.273H10.2526H10.2323H10.212H10.1917H10.1714H10.1511H10.1308H10.1106H10.0904H10.0702H10.05H10.0299H10.0097H9.98962H9.96952H9.94944H9.92938H9.90934H9.88933H9.86933H9.84935H9.8294H9.80947H9.78956H9.76967H9.74981H9.72997H9.71015H9.69035H9.67058H9.65083H9.6311H9.6114H9.59173H9.57207H9.55245H9.53285H9.51327H9.49372H9.47419H9.45469H9.43522H9.41578H9.39636H9.37697H9.3576H9.33826H9.31896H9.29967H9.28042H9.2612H9.242H9.22284H9.2037H9.18459H9.16551H9.14647H9.12745H9.10846H9.08951H9.07058H9.05169H9.03282H9.01399H8.99519H8.97643H8.95769H8.93899H8.92032H8.90169H8.88309H8.86452H8.84598H8.82748H8.80902H8.79059H8.77219H8.75383H8.7355H8.71721H8.69896H8.68074H8.66256H8.64441H8.62631H8.60824H8.5902H8.57221H8.55425H8.53633H8.51844H8.5006H8.4828H8.46503H8.4473H8.42962H8.41197H8.39436H8.37679H8.35927H8.34178H8.32434H8.30693H8.28957H8.27225H8.25497H8.23774H8.22054H8.20339H8.18628H8.16922H8.1522H8.13522H8.11828H8.1014H8.08455H8.06775H8.05099H8.03428H8.01762H8.001H7.98442H7.96789H7.95141H7.93498H7.91859H7.90225H7.88595H7.86971H7.85351H7.83736H7.82126H7.8052H7.7892H7.77324H7.75734H7.74148H7.72567H7.70991H7.69421H7.67855H7.66295H7.64739H7.63189H7.61643H7.60103H7.58569H7.57039H7.55515H7.53995H7.52482H7.50973H7.4947H7.47972H7.4648H7.44993H7.43511H7.42035H7.40564H7.39099H7.3764H7.36186H7.34737H7.33294H7.31857H7.30426H7.29H7.2758H7.26165H7.24757H7.23354H7.21957H7.20565H7.1918H7.178H7.16427H7.15059H7.13697H7.12341H7.10992H7.09648H7.0831H7.06979H7.05653H7.04334H7.0302H7.01713C5.52317 2.36163 4.42571 3.1319 3.88253 4.21388C3.36201 5.25072 3.37131 6.52861 3.91896 7.58019L4.19919 8.1183H4.80589H8.66373C8.54924 8.56957 8.36441 9.04936 8.11811 9.56015C7.68177 10.465 7.09189 11.3898 6.4648 12.3516L6.30461 12.5969L6.3046 12.597L6.30457 12.597L6.30456 12.597C5.73969 13.4617 5.1523 14.3609 4.69921 15.2306C4.20742 16.1746 3.80589 17.206 3.80589 18.2438C3.80589 21.2133 5.54374 22.8223 6.62621 23.2821L6.81357 23.3616H7.01713H16.7181C19.1288 23.3616 21.0044 20.7718 20.2198 17.9737L20.0151 17.2438H19.2569H15.4136C15.731 15.9441 16.6237 14.6746 17.7012 13.2051L17.7621 13.122C18.3856 12.2719 19.055 11.3592 19.5661 10.4111C20.0989 9.42271 20.5 8.32603 20.5 7.1183C20.5 6.33798 20.3644 5.19418 19.7804 4.21031C19.1541 3.15521 18.0506 2.36163 16.3615 2.36163ZM15.363 19.2438C15.4695 19.9237 15.6791 20.4244 15.9086 20.7638C16.247 21.2641 16.5776 21.3616 16.7181 21.3616C17.4595 21.3616 18.4349 20.5565 18.4066 19.2438H15.363ZM13.9467 21.3616C13.5303 20.5329 13.2895 19.4809 13.2895 18.2438C13.2895 15.8384 14.7891 13.7938 16.0328 12.0982L16.0883 12.0225L16.1098 11.9932C16.7635 11.1017 17.3613 10.2863 17.8056 9.46208C18.2498 8.63805 18.5 7.87528 18.5 7.1183C18.5 6.514 18.386 5.77947 18.0605 5.23116C17.7773 4.75408 17.3116 4.36163 16.3615 4.36163C16.0453 4.36163 15.917 4.44853 15.8558 4.50535C15.7768 4.57865 15.6863 4.72142 15.6277 4.98619C15.5048 5.54225 15.5986 6.29888 15.7539 6.84437L16.1168 8.1183H14.7922H10.7084C10.5669 8.919 10.2729 9.69616 9.91961 10.4288C9.41973 11.4655 8.76132 12.4913 8.14013 13.444L7.98918 13.6753C7.411 14.5608 6.87798 15.3772 6.47293 16.1547C6.02851 17.0078 5.80589 17.6922 5.80589 18.2438C5.80589 20.1339 6.77136 21.0655 7.25682 21.3616H13.9467ZM14.87 10.7219H12.07C11.77 10.7219 11.47 10.4219 11.47 10.1219C11.47 9.82185 11.77 9.52185 12.07 9.52185H14.87C15.17 9.52185 15.47 9.82185 15.47 10.1219C15.47 10.5219 15.17 10.7219 14.87 10.7219ZM10.4699 13.6218H13.2699C13.6699 13.6218 13.8699 13.3218 13.8699 13.0218C13.8699 12.7218 13.5699 12.4218 13.2699 12.4218H10.4699C10.1699 12.4218 9.86988 12.7218 9.86988 13.0218C9.86988 13.3218 10.1699 13.6218 10.4699 13.6218ZM11.6699 16.5218H8.8699C8.5699 16.5218 8.2699 16.2218 8.2699 15.9218C8.2699 15.6218 8.5699 15.3218 8.8699 15.3218H11.6699C11.9699 15.3218 12.2699 15.6218 12.2699 15.9218C12.2699 16.2218 11.9699 16.5218 11.6699 16.5218ZM8.07657 19.4219H10.8766C11.1766 19.4219 11.4766 19.2219 11.4766 18.8219C11.4766 18.5219 11.1766 18.2219 10.8766 18.2219H8.07657C7.77657 18.2219 7.47657 18.5219 7.47657 18.8219C7.47657 19.1219 7.77657 19.4219 8.07657 19.4219Z" fill="black"/>
</svg>
