<svg width="24" height="25" viewBox="0 0 24 25" fill="none" xmlns="http://www.w3.org/2000/svg">
<path fill-rule="evenodd" clip-rule="evenodd" d="M11.4194 22.147C11.4359 22.5417 11.7764 22.844 12.1703 22.8136C12.5227 22.7865 12.7991 22.5001 12.8138 22.1469L12.8898 20.3217C13.7319 20.2115 14.5674 19.9479 15.2544 19.5001C16.1229 18.934 16.7997 18.0301 16.7997 16.8063C16.7997 15.5431 16.0784 14.5897 15.2728 13.8754C14.6743 13.3448 13.9391 12.8678 13.2185 12.4303L13.4221 7.5398C13.8101 7.63361 14.16 7.76426 14.4461 7.92333C14.8209 8.13164 15.0191 8.34306 15.1121 8.53913C14.9907 8.87084 14.9205 9.26248 14.9205 9.68198C14.9205 10.8779 15.4905 11.8474 16.1937 11.8474C16.8968 11.8474 17.4668 10.8779 17.4668 9.68198C17.4668 9.08464 17.3246 8.54379 17.0946 8.15203C16.8564 7.24326 16.1634 6.58968 15.4179 6.17527C14.8498 5.85946 14.19 5.64119 13.5065 5.51331L13.5539 4.37432C13.5877 3.5635 12.9446 2.88522 12.1331 2.87583C11.3085 2.86629 10.6447 3.55041 10.679 4.37434L10.725 5.47787C10.0972 5.58236 9.48966 5.77005 8.95734 6.05713C7.9797 6.58436 7.18201 7.5051 7.18201 8.84141C7.18201 10.1186 7.89116 11.0891 8.70167 11.8218C9.38453 12.4391 10.2433 12.9803 11.0579 13.4691L11.2737 18.6483C9.56457 18.6012 8.63424 17.901 7.84673 15.8923C7.59611 17.6886 8.50488 19.5501 11.3336 20.0877L11.4194 22.147ZM10.9568 11.0412L10.8091 7.49773C10.4658 7.57313 10.1589 7.68143 9.90667 7.81746C9.38432 8.09916 9.18201 8.4354 9.18201 8.84141C9.18201 9.30652 9.42506 9.77967 10.0429 10.3382C10.3085 10.5783 10.6162 10.8099 10.9568 11.0412ZM13.1223 14.7408L12.9748 18.2812C13.4414 18.1858 13.8513 18.0273 14.1623 17.8246C14.6115 17.5318 14.7997 17.1955 14.7997 16.8063C14.7997 16.3769 14.5687 15.9241 13.946 15.372C13.7037 15.1572 13.4269 14.9489 13.1223 14.7408Z" fill="black"/>
</svg>
