<svg width="24" height="25" viewBox="0 0 24 25" fill="none" xmlns="http://www.w3.org/2000/svg">
<path fill-rule="evenodd" clip-rule="evenodd" d="M15.2623 5.19737C16.1909 4.59923 17.4286 4.86714 18.0267 5.79574L22.1232 12.1556C22.7213 13.0842 22.4534 14.3219 21.5248 14.92L12.721 20.5907L11.638 18.9093L20.4418 13.2386L16.3453 6.87876L15.7048 7.29131L14.6218 5.60992L15.2623 5.19737Z" fill="black"/>
<path fill-rule="evenodd" clip-rule="evenodd" d="M17.9016 12.2477C18.3054 12.3095 18.7807 12.0033 18.7807 12.0033C18.7807 12.0033 18.2972 12.3148 18.19 12.6955C18.0829 13.0762 18.373 13.5322 18.373 13.5322C18.373 13.5322 18.053 13.0879 17.6715 13.0294C17.29 12.971 16.7836 13.2897 16.7836 13.2897C16.7836 13.2897 17.2725 12.9748 17.3831 12.5817C17.4938 12.1885 17.2334 11.7629 17.2334 11.7629C17.2334 11.7629 17.4979 12.1859 17.9016 12.2477Z" fill="black"/>
<path fill-rule="evenodd" clip-rule="evenodd" d="M8.71427 4.01469C9.2046 3.02492 10.4045 2.62004 11.3942 3.11037L17.8421 6.30462C18.8319 6.79495 19.2368 7.99481 18.7464 8.98458L13.0241 20.5356L11.232 19.6478L16.9543 8.09677L10.5064 4.90251L10.0466 5.83069L8.25445 4.94287L8.71427 4.01469Z" fill="black"/>
<path fill-rule="evenodd" clip-rule="evenodd" d="M13.7644 8.62439C14.1626 8.47621 14.4166 7.96354 14.4166 7.96354C14.4166 7.96354 14.1583 8.48501 14.2777 8.87868C14.3972 9.27235 14.9168 9.53316 14.9168 9.53316C14.9168 9.53316 14.377 9.29782 14.0007 9.43784C13.6245 9.57786 13.3496 10.1173 13.3496 10.1173C13.3496 10.1173 13.6108 9.59012 13.4874 9.18355C13.364 8.77697 12.8884 8.52834 12.8884 8.52834C12.8884 8.52834 13.3662 8.77257 13.7644 8.62439Z" fill="black"/>
<path fill-rule="evenodd" clip-rule="evenodd" d="M11.1791 6.26769L3.50276 6.25163L3.47449 19.7662L11.1509 19.7823L11.1791 6.26769ZM3.50694 4.25164C2.40237 4.24933 1.50507 5.14289 1.50276 6.24745L1.47449 19.762C1.47218 20.8666 2.36574 21.7639 3.47031 21.7662L11.1467 21.7823C12.2513 21.7846 13.1486 20.891 13.1509 19.7865L13.1791 6.27188C13.1815 5.16731 12.2879 4.27001 11.1833 4.2677L3.50694 4.25164Z" fill="black"/>
<path fill-rule="evenodd" clip-rule="evenodd" d="M6.27731 12.1838C7.08255 11.3819 7.08565 9.89671 7.08565 9.89671C7.08565 9.89671 7.08249 11.4074 7.85892 12.1871C8.63534 12.9668 10.2404 12.9781 10.2404 12.9781C10.2404 12.9781 8.61642 13.0492 7.85553 13.807C7.09464 14.5647 7.0726 16.1362 7.0726 16.1362C7.0726 16.1362 7.0758 14.6089 6.27392 13.8036C5.47204 12.9984 3.99079 12.965 3.99079 12.965C3.99079 12.965 5.47206 12.9857 6.27731 12.1838Z" fill="black"/>
<path fill-rule="evenodd" clip-rule="evenodd" d="M8.68537 8.15476C8.99195 7.84946 8.99314 7.284 8.99314 7.284C8.99314 7.284 8.99193 7.85917 9.28754 8.15602C9.58316 8.45287 10.1943 8.45718 10.1943 8.45718C10.1943 8.45718 9.57595 8.48428 9.28625 8.77276C8.99656 9.06125 8.98817 9.65958 8.98817 9.65958C8.98817 9.65958 8.98938 9.07809 8.68408 8.7715C8.37878 8.46492 7.81481 8.4522 7.81481 8.4522C7.81481 8.4522 8.37879 8.46006 8.68537 8.15476Z" fill="black"/>
<path fill-rule="evenodd" clip-rule="evenodd" d="M5.24913 17.2657C5.55571 16.9604 5.55689 16.3949 5.55689 16.3949C5.55689 16.3949 5.55569 16.9701 5.8513 17.267C6.14691 17.5638 6.75801 17.5681 6.75801 17.5681C6.75801 17.5681 6.13971 17.5952 5.85001 17.8837C5.56032 18.1722 5.55193 18.7705 5.55193 18.7705C5.55193 18.7705 5.55314 18.189 5.24784 17.8824C4.94254 17.5759 4.37857 17.5631 4.37857 17.5631C4.37857 17.5631 4.94255 17.571 5.24913 17.2657Z" fill="black"/>
</svg>
