<svg width="24" height="25" viewBox="0 0 24 25" fill="none" xmlns="http://www.w3.org/2000/svg">
<path fill-rule="evenodd" clip-rule="evenodd" d="M8.22461 3.51276C8.22461 2.40819 9.12004 1.51276 10.2246 1.51276H18.2612C19.3657 1.51276 20.2612 2.40819 20.2612 3.51276V16.5676C20.2612 17.6721 19.3657 18.5676 18.2612 18.5676H16.9016V16.5676L18.2612 16.5676L18.2612 3.51276L10.2246 3.51276V4.77402H8.22461V3.51276Z" fill="black"/>
<path fill-rule="evenodd" clip-rule="evenodd" d="M5.80725 5.85577C5.80725 4.7512 6.70268 3.85577 7.80725 3.85577H15.8438C16.9484 3.85577 17.8438 4.75121 17.8438 5.85577V18.9106C17.8438 20.0152 16.9484 20.9106 15.8438 20.9106H14.3388V18.9106L15.8438 18.9106L15.8438 5.85577H7.80725V7.1958H5.80725V5.85577Z" fill="black"/>
<path fill-rule="evenodd" clip-rule="evenodd" d="M13.3975 8.23541H5.72107V21.75L13.3975 21.75V8.23541ZM5.72107 6.23541C4.6165 6.23541 3.72107 7.13084 3.72107 8.23541V21.75C3.72107 22.8546 4.6165 23.75 5.72107 23.75H13.3975C14.502 23.75 15.3975 22.8546 15.3975 21.75V8.23541C15.3975 7.13084 14.502 6.23541 13.3975 6.23541H5.72107Z" fill="black"/>
<path fill-rule="evenodd" clip-rule="evenodd" d="M8.50802 14.1617C9.31158 13.3581 9.31158 11.873 9.31158 11.873C9.31158 11.873 9.31158 13.3837 10.0896 14.1617C10.8677 14.9398 12.4728 14.9477 12.4728 14.9477C12.4728 14.9477 10.8489 15.0223 10.0896 15.7816C9.33033 16.5409 9.31158 18.1124 9.31158 18.1124C9.31158 18.1124 9.31158 16.5851 8.50802 15.7816C7.70446 14.978 6.22314 14.9477 6.22314 14.9477C6.22314 14.9477 7.70446 14.9653 8.50802 14.1617Z" fill="black"/>
<path fill-rule="evenodd" clip-rule="evenodd" d="M10.9077 10.1277C11.2136 9.82175 11.2136 9.25629 11.2136 9.25629C11.2136 9.25629 11.2136 9.83146 11.5098 10.1277C11.8061 10.4239 12.4172 10.427 12.4172 10.427C12.4172 10.427 11.7989 10.4553 11.5098 10.7444C11.2207 11.0335 11.2136 11.6319 11.2136 11.6319C11.2136 11.6319 11.2136 11.0504 10.9077 10.7444C10.6017 10.4385 10.0377 10.427 10.0377 10.427C10.0377 10.427 10.6017 10.4336 10.9077 10.1277Z" fill="black"/>
<path fill-rule="evenodd" clip-rule="evenodd" d="M7.49054 19.2458C7.79648 18.9398 7.79648 18.3744 7.79648 18.3744C7.79648 18.3744 7.79648 18.9495 8.09271 19.2458C8.38894 19.542 9.00005 19.545 9.00005 19.545C9.00005 19.545 8.3818 19.5734 8.09271 19.8625C7.80362 20.1516 7.79648 20.7499 7.79648 20.7499C7.79648 20.7499 7.79648 20.1685 7.49054 19.8625C7.18459 19.5566 6.62061 19.545 6.62061 19.545C6.62061 19.545 7.18459 19.5517 7.49054 19.2458Z" fill="black"/>
</svg>
