<svg width="24" height="25" viewBox="0 0 24 25" fill="none" xmlns="http://www.w3.org/2000/svg">
<path fill-rule="evenodd" clip-rule="evenodd" d="M21.0613 7.29518L17.5498 6.29921L18.0955 4.37511L21.607 5.37108C23.201 5.82318 24.1267 7.48186 23.6746 9.07584L20.0633 21.8079C19.653 23.2546 18.1239 24.0719 16.693 23.6094L17.3082 21.7064C17.661 21.8204 18.038 21.6189 18.1392 21.2622L21.7505 8.5301C21.9012 7.99877 21.5926 7.44588 21.0613 7.29518Z" fill="black"/>
<path fill-rule="evenodd" clip-rule="evenodd" d="M2.9989 7.27818L6.52437 6.27824L5.97863 4.35414L2.45316 5.35408C0.85918 5.80619 -0.0664927 7.46486 0.385612 9.05884L3.97793 21.7242C4.40498 23.2299 5.99251 24.0841 7.48433 23.6111L6.87977 21.7046C6.46379 21.8365 6.02112 21.5983 5.90204 21.1785L2.30971 8.5131C2.15901 7.98178 2.46757 7.42889 2.9989 7.27818Z" fill="black"/>
<path fill-rule="evenodd" clip-rule="evenodd" d="M17 4.75H7.00004V21.75H17V4.75ZM7.00004 2.75C5.89547 2.75 5.00004 3.64543 5.00004 4.75V21.75C5.00004 22.8546 5.89547 23.75 7.00004 23.75H17C18.1046 23.75 19 22.8546 19 21.75V4.75C19 3.64543 18.1046 2.75 17 2.75H7.00004Z" fill="black"/>
<path fill-rule="evenodd" clip-rule="evenodd" d="M14.656 6.79482C15.0228 6.42799 15.0228 5.75 15.0228 5.75C15.0228 5.75 15.0228 6.43963 15.378 6.79482C15.7332 7.15 16.4659 7.15363 16.4659 7.15363C16.4659 7.15363 15.7246 7.18767 15.378 7.53429C15.0314 7.88091 15.0228 8.59833 15.0228 8.59833C15.0228 8.59833 15.0228 7.90112 14.656 7.53429C14.2892 7.16746 13.613 7.15363 13.613 7.15363C13.613 7.15363 14.2892 7.16164 14.656 6.79482Z" fill="black"/>
<path fill-rule="evenodd" clip-rule="evenodd" d="M14.656 19.4276C15.0228 19.0607 15.0228 18.3828 15.0228 18.3828C15.0228 18.3828 15.0228 19.0724 15.378 19.4276C15.7332 19.7827 16.4659 19.7864 16.4659 19.7864C16.4659 19.7864 15.7246 19.8204 15.378 20.167C15.0314 20.5137 15.0228 21.2311 15.0228 21.2311C15.0228 21.2311 15.0228 20.5339 14.656 20.167C14.2892 19.8002 13.613 19.7864 13.613 19.7864C13.613 19.7864 14.2892 19.7944 14.656 19.4276Z" fill="black"/>
<path fill-rule="evenodd" clip-rule="evenodd" d="M8.57391 19.4276C8.94073 19.0607 8.94073 18.3828 8.94073 18.3828C8.94073 18.3828 8.94073 19.0724 9.29591 19.4276C9.6511 19.7827 10.3838 19.7864 10.3838 19.7864C10.3838 19.7864 9.64254 19.8204 9.29591 20.167C8.94929 20.5137 8.94073 21.2311 8.94073 21.2311C8.94073 21.2311 8.94073 20.5339 8.57391 20.167C8.20708 19.8002 7.53086 19.7864 7.53086 19.7864C7.53086 19.7864 8.20708 19.7944 8.57391 19.4276Z" fill="black"/>
<path fill-rule="evenodd" clip-rule="evenodd" d="M8.57391 6.79488C8.94073 6.42805 8.94073 5.75006 8.94073 5.75006C8.94073 5.75006 8.94073 6.4397 9.29591 6.79488C9.6511 7.15006 10.3838 7.15369 10.3838 7.15369C10.3838 7.15369 9.64254 7.18773 9.29591 7.53435C8.94929 7.88097 8.94073 8.59839 8.94073 8.59839C8.94073 8.59839 8.94073 7.90118 8.57391 7.53435C8.20708 7.16753 7.53086 7.15369 7.53086 7.15369C7.53086 7.15369 8.20708 7.1617 8.57391 6.79488Z" fill="black"/>
<path d="M11.8146 9.59713C11.8744 9.41287 12.1351 9.41287 12.195 9.59713L13.0024 12.082C13.0291 12.1644 13.1059 12.2202 13.1926 12.2202H15.8053C15.9991 12.2202 16.0796 12.4681 15.9229 12.582L13.8091 14.1177C13.739 14.1686 13.7097 14.2589 13.7365 14.3413L14.5438 16.8262C14.6037 17.0105 14.3928 17.1637 14.2361 17.0498L12.1223 15.5141C12.0522 15.4631 11.9573 15.4631 11.8872 15.5141L9.77346 17.0498C9.61671 17.1637 9.40582 17.0105 9.46569 16.8262L10.2731 14.3413C10.2998 14.2589 10.2705 14.1686 10.2004 14.1177L8.08667 12.582C7.92992 12.4681 8.01048 12.2202 8.20422 12.2202H10.817C10.9036 12.2202 10.9804 12.1644 11.0072 12.082L11.8146 9.59713Z" fill="black"/>
</svg>
