<svg width="24" height="25" viewBox="0 0 24 25" fill="none" xmlns="http://www.w3.org/2000/svg">
<path fill-rule="evenodd" clip-rule="evenodd" d="M17.5805 7.27639C17.8813 7.5335 17.9079 7.98918 17.6392 8.27962L5.16254 21.7617C4.60235 22.367 3.64924 22.3793 3.07366 21.7885C2.507 21.207 2.5328 20.2722 3.13067 19.7227L16.656 7.29302C16.9156 7.05445 17.3125 7.04731 17.5805 7.27639Z" fill="black"/>
<path fill-rule="evenodd" clip-rule="evenodd" d="M18.8427 4.27489C19.6853 3.43231 19.6853 1.875 19.6853 1.875C19.6853 1.875 19.6853 3.45906 20.5012 4.27489C21.317 5.09073 23 5.09907 23 5.09907C23 5.09907 21.2973 5.17726 20.5012 5.97344C19.705 6.76961 19.6853 8.41748 19.6853 8.41748C19.6853 8.41748 19.6853 6.81602 18.8427 5.97344C18.0002 5.13085 16.4469 5.09907 16.4469 5.09907C16.4469 5.09907 18.0002 5.11748 18.8427 4.27489Z" fill="black"/>
<path fill-rule="evenodd" clip-rule="evenodd" d="M12.1001 5.99598C12.6879 5.40824 12.6879 4.32196 12.6879 4.32196C12.6879 4.32196 12.6879 5.4269 13.257 5.99598C13.826 6.56506 15 6.57087 15 6.57087C15 6.57087 13.8123 6.62542 13.257 7.18078C12.7016 7.73614 12.6879 8.88559 12.6879 8.88559C12.6879 8.88559 12.6879 7.76851 12.1001 7.18078C11.5124 6.59304 10.429 6.57087 10.429 6.57087C10.429 6.57087 11.5124 6.58372 12.1001 5.99598Z" fill="black"/>
<path fill-rule="evenodd" clip-rule="evenodd" d="M16.6712 12.9854C17.2589 12.3976 17.2589 11.3113 17.2589 11.3113C17.2589 11.3113 17.2589 12.4163 17.828 12.9854C18.3971 13.5544 19.571 13.5603 19.571 13.5603C19.571 13.5603 18.3834 13.6148 17.828 14.1702C17.2726 14.7255 17.2589 15.875 17.2589 15.875C17.2589 15.875 17.2589 14.7579 16.6712 14.1702C16.0835 13.5824 15 13.5603 15 13.5603C15 13.5603 16.0835 13.5731 16.6712 12.9854Z" fill="black"/>
</svg>
