<svg width="24" height="25" viewBox="0 0 24 25" fill="none" xmlns="http://www.w3.org/2000/svg">
<path fill-rule="evenodd" clip-rule="evenodd" d="M6.81906 16.2205C7.63333 6.44318 20.1111 1.77854 16.7775 5.58703C13.6854 9.11962 15.3126 13.6818 16.5851 16.125C19.1742 16.5 21.031 17.1638 21.0892 17.875C21.0892 19.5318 16.6944 20.875 12 20.875C7.30558 20.875 3.09303 19.5318 3.09303 17.875C3.03714 17.2208 4.56902 16.6066 6.81906 16.2205ZM7.14716 16.6535C8.86889 19.548 15.1537 17.8307 16.4106 16.4498C15.2599 16.981 10.1267 18.7929 7.14716 16.6535ZM12.4033 16.4498C12.4033 16.4498 12.4033 15.4977 11.8881 14.9826C11.373 14.4674 10.4234 14.4787 10.4234 14.4787C10.4234 14.4787 11.373 14.4592 11.8881 13.9441C12.4033 13.4289 12.4033 12.4498 12.4033 12.4498C12.4033 12.4498 12.4153 13.4573 12.9021 13.9441C13.3888 14.4309 14.4298 14.4787 14.4298 14.4787C14.4298 14.4787 13.4009 14.4838 12.9021 14.9826C12.4033 15.4813 12.4033 16.4498 12.4033 16.4498ZM12.8924 9.31442C13.1852 9.60719 13.1852 10.1483 13.1852 10.1483C13.1852 10.1483 13.1852 9.5979 13.4686 9.31442C13.7521 9.03094 14.3369 9.02805 14.3369 9.02805C14.3369 9.02805 13.7453 9.00088 13.4686 8.72423C13.192 8.44758 13.1852 7.875 13.1852 7.875C13.1852 7.875 13.1852 8.43146 12.8924 8.72423C12.5996 9.017 12.0599 9.02805 12.0599 9.02805C12.0599 9.02805 12.5996 9.02165 12.8924 9.31442ZM10.4101 12.4216C10.4101 12.4216 10.4101 11.8805 10.1173 11.5877C9.82454 11.295 9.28483 11.3014 9.28483 11.3014C9.28483 11.3014 9.82454 11.2903 10.1173 10.9975C10.4101 10.7048 10.4101 10.1483 10.4101 10.1483C10.4101 10.1483 10.4169 10.7209 10.6936 10.9975C10.9702 11.2742 11.5618 11.3014 11.5618 11.3014C11.5618 11.3014 10.977 11.3043 10.6936 11.5877C10.4101 11.8712 10.4101 12.4216 10.4101 12.4216Z" fill="black"/>
</svg>
