<?xml version="1.0" encoding="UTF-8" standalone="no"?>
<!DOCTYPE svg PUBLIC "-//W3C//DTD SVG 1.1//EN" "http://www.w3.org/Graphics/SVG/1.1/DTD/svg11.dtd">
<svg width="100%" height="100%" viewBox="0 0 31 30" version="1.1" xmlns="http://www.w3.org/2000/svg" xmlns:xlink="http://www.w3.org/1999/xlink" xml:space="preserve" xmlns:serif="http://www.serif.com/" style="fill-rule:evenodd;clip-rule:evenodd;stroke-linejoin:round;stroke-miterlimit:2;">
    <g transform="matrix(1,0,0,1,-107,0)">
        <g id="merge" transform="matrix(1,0,0,1,107.299,0)">
            <rect x="0" y="0" width="30" height="30" style="fill:none;"/>
            <g transform="matrix(1,0,0,1,-107.299,0)">
                <path d="M112.825,24.608L131.774,24.608L131.774,20.808L112.825,20.808L112.825,24.608ZM131.774,5.531L117.748,5.531C116.232,5.531 114.777,6.134 113.705,7.206C112.633,8.279 112.03,9.733 112.03,11.249L112.03,11.252C112.03,12.768 112.633,14.222 113.705,15.295C114.777,16.367 116.232,16.97 117.748,16.97C122.99,16.97 131.774,16.97 131.774,16.97L131.774,13.17L117.748,13.17C117.24,13.17 116.752,12.967 116.392,12.608C116.032,12.248 115.83,11.76 115.83,11.252L115.83,11.249C115.83,10.741 116.032,10.253 116.392,9.893C116.752,9.534 117.24,9.331 117.748,9.331L131.774,9.331L131.774,5.531Z" style="fill:white;"/>
            </g>
        </g>
    </g>
</svg>
