<?xml version="1.0" encoding="UTF-8" standalone="no"?>
<!DOCTYPE svg PUBLIC "-//W3C//DTD SVG 1.1//EN" "http://www.w3.org/Graphics/SVG/1.1/DTD/svg11.dtd">
<svg width="100%" height="100%" viewBox="0 0 31 30" version="1.1" xmlns="http://www.w3.org/2000/svg" xmlns:xlink="http://www.w3.org/1999/xlink" xml:space="preserve" xmlns:serif="http://www.serif.com/" style="fill-rule:evenodd;clip-rule:evenodd;stroke-linejoin:round;stroke-miterlimit:2;">
    <g transform="matrix(1,0,0,1,-384,0)">
        <g id="stop-sign" transform="matrix(1,0,0,1,384.986,0)">
            <rect x="0" y="0" width="30" height="30" style="fill:none;"/>
            <g transform="matrix(1,-0.414214,0.414214,1,-391.2,165.68)">
                <path d="M408.029,6.957L399.986,3.626L391.944,6.957L388.612,15L391.944,23.043L399.986,26.374L408.029,23.043L411.361,15L408.029,6.957ZM399.986,7.426L405.342,9.644C405.342,9.644 407.561,15 407.561,15C407.561,15 405.342,20.356 405.342,20.356C405.342,20.356 399.986,22.574 399.986,22.574C399.986,22.574 394.631,20.356 394.631,20.356C394.631,20.356 392.412,15 392.412,15C392.412,15 394.631,9.644 394.631,9.644L399.986,7.426Z" style="fill:white;"/>
            </g>
        </g>
    </g>
</svg>
