<svg width="23" height="27" viewBox="0 0 23 27" fill="none" xmlns="http://www.w3.org/2000/svg">
<path d="M10.3356 4.83317C10.3356 3.94928 10.9881 3.22609 11.7856 3.22609C12.5831 3.22609 13.2356 3.94928 13.2356 4.83317L13.2236 10.0696L15.4106 12.4668V4.9671C15.4106 2.74396 13.7915 0.949387 11.7856 0.949387C9.92481 0.949387 8.41439 2.5029 8.20898 4.49837L10.3356 6.85542V4.83317ZM20.244 13.0025H18.1898C18.1898 13.7793 18.069 14.5159 17.8636 15.1989L19.3981 16.8997C19.9298 15.7212 20.244 14.3953 20.244 13.0025ZM2.61439 2.10113L0.910645 3.98946L8.16064 12.0249V13.0025C8.16064 15.2257 9.77981 17.0202 11.7856 17.0202C12.0636 17.0202 12.3173 16.9801 12.5711 16.9131L14.5769 19.1362C13.719 19.5782 12.7644 19.8326 11.7856 19.8326C8.45064 19.8326 5.38148 17.0202 5.38148 13.0025H3.32731C3.32731 17.5693 6.61398 21.346 10.5773 22.0022V26.3949H12.994V22.0022C14.0936 21.8281 15.1327 21.3995 16.0752 20.7969L21.1502 26.4217L22.854 24.5334L2.61439 2.10113Z" fill="#FF4848"/>
</svg>
