<svg width="22" height="26" viewBox="0 0 22 26" fill="none" xmlns="http://www.w3.org/2000/svg">
<path d="M18.4894 5.10785H3.13869C2.21743 5.10785 1.46407 5.8612 1.46407 6.78247V21.8541C1.46407 23.6966 2.97078 25.2033 4.81331 25.2033H16.8148C18.6573 25.2033 20.164 23.6966 20.164 21.8541V6.78247C20.164 5.8612 19.4106 5.10785 18.4894 5.10785ZM6.90659 20.7376C6.90659 21.0451 6.65583 21.2959 6.34838 21.2959C6.04093 21.2959 5.79017 21.0451 5.79017 20.7376V8.73619C5.79017 8.42873 6.04093 8.17799 6.34838 8.17799C6.65583 8.17799 6.90659 8.42874 6.90659 8.73619V20.7376ZM11.3722 20.7376C11.3722 21.0451 11.1215 21.2959 10.814 21.2959C10.5066 21.2959 10.2558 21.0451 10.2558 20.7376V8.73619C10.2558 8.42873 10.5066 8.17799 10.814 8.17799C11.1215 8.17799 11.3722 8.42874 11.3722 8.73619V20.7376ZM15.8379 20.7376C15.8379 21.0451 15.5871 21.2959 15.2797 21.2959C14.9722 21.2959 14.7215 21.0451 14.7215 20.7376V8.73619C14.7215 8.42873 14.9722 8.17799 15.2797 8.17799C15.5871 8.17799 15.8379 8.42874 15.8379 8.73619V20.7376ZM21.2804 3.15412C21.2804 3.62838 20.9174 3.99143 20.4431 3.99143H1.18497C0.710714 3.99143 0.347656 3.62838 0.347656 3.15412C0.347656 2.67987 0.710714 2.31681 1.18497 2.31681H7.18569V1.75861C7.18569 0.837341 7.93905 0.0839844 8.86031 0.0839844H12.7678C13.689 0.0839844 14.4424 0.837341 14.4424 1.75861V2.31681H20.4431C20.9174 2.31681 21.2804 2.67987 21.2804 3.15412Z" fill="#F2F2F2"/>
</svg>
