<svg width="100%" height="100%" viewBox="0 0 30 30" version="1.1" xmlns="http://www.w3.org/2000/svg" style="fill-rule:evenodd;clip-rule:evenodd;stroke-linejoin:round;stroke-miterlimit:2;">
    <g transform="matrix(1,0,0,1,-566.751,-38.9972)">
        <g id="account" transform="matrix(1,0,0,1,566.751,38.9972)">
            <rect x="0" y="0" width="30" height="30" style="fill:none;"/>
            <g transform="matrix(1,0,0,1,-566.751,-38.9972)">
                <path d="M581.752,42.624C575.474,42.624 570.377,47.721 570.377,53.999C570.377,60.277 575.474,65.374 581.752,65.374C588.03,65.374 593.127,60.277 593.127,53.999C593.127,47.721 588.03,42.624 581.752,42.624ZM585.181,60.754C584.633,59.393 583.3,58.432 581.743,58.432C580.19,58.432 578.859,59.39 578.309,60.747C579.343,61.276 580.513,61.574 581.752,61.574C582.986,61.574 584.151,61.278 585.181,60.754ZM587.226,59.233C588.527,57.872 589.327,56.028 589.327,53.999C589.327,49.818 585.933,46.424 581.752,46.424C577.571,46.424 574.177,49.818 574.177,53.999C574.177,56.023 574.972,57.862 576.267,59.221C577.31,57.265 579.373,55.932 581.743,55.932C584.119,55.932 586.184,57.27 587.226,59.233ZM581.743,47.794C579.687,47.794 578.017,49.464 578.017,51.52C578.017,53.577 579.687,55.247 581.743,55.247C583.8,55.247 585.47,53.577 585.47,51.52C585.47,49.464 583.8,47.794 581.743,47.794ZM581.743,50.294C582.421,50.294 582.97,50.843 582.97,51.52C582.97,52.198 582.421,52.747 581.743,52.747C581.066,52.747 580.517,52.198 580.517,51.52C580.517,50.843 581.066,50.294 581.743,50.294Z" style="fill:white;"/>
            </g>
        </g>
    </g>
</svg>
