<svg width="100%" height="100%" viewBox="0 0 31 31" version="1.1" xmlns="http://www.w3.org/2000/svg" style="fill-rule:evenodd;clip-rule:evenodd;stroke-linejoin:round;stroke-miterlimit:2;">
    <g transform="matrix(1,0,0,1,-529,-39)">
        <g id="ankh" transform="matrix(1,0,0,1,529.159,39.6326)">
            <rect x="0" y="0" width="30" height="30" style="fill:none;"/>
            <g transform="matrix(1,0,0,1,-529.159,-39.6326)">
                <path d="M541.255,52.733L534.685,52.733L534.685,56.533L542.259,56.533L542.259,65.624L546.059,65.624L546.059,56.533L553.634,56.533L553.634,52.733L547.063,52.733C547.372,52.271 547.742,51.74 548.112,51.264L548.112,51.264C549.915,48.947 549.915,45.785 548.112,43.468L548.111,43.467C547.029,42.077 545.577,41.449 544.159,41.449C542.742,41.449 541.289,42.077 540.208,43.467L540.206,43.468C538.403,45.785 538.403,48.947 540.206,51.264L540.206,51.264C540.576,51.74 540.947,52.271 541.255,52.733ZM546.138,45.002C545.045,43.598 543.273,43.598 542.18,45.002C542.18,45.003 542.179,45.003 542.179,45.004C541.086,46.408 541.086,48.324 542.179,49.728C543.169,51 544.159,52.633 544.159,52.633C544.159,52.633 545.149,51 546.139,49.728C547.232,48.324 547.232,46.408 546.139,45.004C546.139,45.003 546.138,45.003 546.138,45.002Z" style="fill:white;"/>
            </g>
        </g>
    </g>
</svg>
