<svg width="100%" height="100%" viewBox="0 0 31 31" version="1.1" xmlns="http://www.w3.org/2000/svg" style="fill-rule:evenodd;clip-rule:evenodd;stroke-linejoin:round;stroke-miterlimit:2;">
    <g transform="matrix(1,0,0,1,-349,-39)">
        <g id="cloth" transform="matrix(1,0,0,1,349.615,39.6309)">
            <rect x="0" y="0" width="30" height="30" style="fill:none;"/>
            <g transform="matrix(1,0,0,1.11479,-354.334,-46.9895)">
                <path d="M368.468,56.918L368.468,49.588C368.468,49.159 368.856,48.811 369.334,48.811C369.334,48.811 369.335,48.811 369.335,48.811C369.565,48.811 369.785,48.893 369.947,49.038C370.11,49.184 370.201,49.382 370.201,49.588L370.201,64.105L374.001,64.105C374.001,64.105 374.001,54.306 374.001,49.588C374.001,48.478 373.509,47.413 372.634,46.628C371.759,45.843 370.572,45.402 369.335,45.402L369.334,45.402C366.757,45.402 364.668,47.276 364.668,49.588L364.668,56.918L368.468,56.918Z" style="fill:white;"/>
            </g>
        </g>
    </g>
</svg>
