<svg width="100%" height="100%" viewBox="0 0 31 31" version="1.1" xmlns="http://www.w3.org/2000/svg" style="fill-rule:evenodd;clip-rule:evenodd;stroke-linejoin:round;stroke-miterlimit:2;">
    <g transform="matrix(1,0,0,1,-71,-39)">
        <g id="cup" transform="matrix(1,0,0,1,71.0055,39.6309)">
            <rect x="0" y="0" width="30" height="30" style="fill:none;"/>
            <g transform="matrix(1,0,0,1,-71.0055,-39.6309)">
                <path d="M100.927,50.746C100.927,50.746 99.59,49.409 98.236,48.055C96.449,46.268 94.025,45.264 91.497,45.264C85.938,45.264 76.475,45.264 76.475,45.264L76.475,55.81C76.475,58.325 77.475,60.737 79.253,62.516C81.032,64.295 83.444,65.294 85.959,65.294C85.96,65.294 85.96,65.294 85.961,65.294C88.476,65.294 90.888,64.295 92.667,62.516C94.445,60.737 95.445,58.325 95.445,55.81L95.445,50.638L98.24,53.433L100.927,50.746ZM91.645,49.064L80.275,49.064L80.275,55.81C80.275,57.317 80.874,58.763 81.94,59.829C83.006,60.895 84.452,61.494 85.959,61.494C85.96,61.494 85.96,61.494 85.961,61.494C87.468,61.494 88.914,60.895 89.98,59.829C91.046,58.763 91.645,57.317 91.645,55.81C91.645,52.536 91.645,49.064 91.645,49.064Z" style="fill:white;"/>
            </g>
        </g>
    </g>
</svg>
