<svg width="100%" height="100%" viewBox="0 0 31 31" version="1.1" xmlns="http://www.w3.org/2000/svg" style="fill-rule:evenodd;clip-rule:evenodd;stroke-linejoin:round;stroke-miterlimit:2;">
    <g transform="matrix(1,0,0,1,-248,-39)">
        <g id="hand" transform="matrix(1,0,0,1,248.181,39.6309)">
            <rect x="0" y="0" width="30" height="30" style="fill:none;"/>
            <g transform="matrix(1,0,0,1,-0.233612,2.84217e-14)">
                <g transform="matrix(1,0,0,1,-250.18,-39.6309)">
                    <path d="M257.496,45.156L263.506,45.156C266.938,45.156 270.229,46.52 272.655,48.946C272.655,48.946 272.655,48.946 272.655,48.946L272.655,64.105L257.556,64.105C255.43,64.105 253.706,62.382 253.706,60.256C253.706,58.455 253.706,56.316 253.706,54.515C253.706,53.494 254.112,52.515 254.834,51.793C255.556,51.071 256.535,50.665 257.556,50.665L262.348,50.665C262.808,50.665 263.181,50.293 263.181,49.833C263.181,49.815 263.181,49.797 263.181,49.779C263.181,49.558 263.093,49.346 262.937,49.19C262.781,49.034 262.569,48.946 262.348,48.946C262.045,48.946 261.678,48.946 261.284,48.946C260.28,48.946 259.316,48.547 258.606,47.837C257.895,47.126 257.496,46.163 257.496,45.158C257.496,45.157 257.496,45.156 257.496,45.156Z" style="fill:none;"/>
                </g>
                <g transform="matrix(1,0,0,1,-249.875,-39.6309)">
                    <path d="M275.815,48.946L275.815,64.105" style="fill:none;"/>
                </g>
            </g>
            <g transform="matrix(1,0,0,1,-248.181,-39.6309)">
                <path d="M271.988,48.946L271.988,64.105L275.788,64.105L275.788,48.946L271.988,48.946ZM255.264,45.156L261.274,45.156C264.705,45.156 267.996,46.52 270.422,48.946C270.423,48.946 270.423,48.946 270.423,48.946L270.423,64.105L255.323,64.105C253.197,64.105 251.474,62.382 251.474,60.256C251.474,58.455 251.474,56.316 251.474,54.515C251.474,53.494 251.879,52.515 252.601,51.793C253.323,51.071 254.302,50.665 255.323,50.665L260.116,50.665C260.576,50.665 260.948,50.293 260.948,49.833C260.948,49.815 260.948,49.797 260.948,49.779C260.948,49.558 260.861,49.346 260.704,49.19C260.548,49.034 260.337,48.946 260.116,48.946C259.812,48.946 259.445,48.946 259.052,48.946C258.047,48.946 257.084,48.547 256.373,47.837C255.663,47.126 255.264,46.163 255.264,45.158C255.264,45.157 255.264,45.156 255.264,45.156ZM264.746,49.642C265.408,49.914 266.039,50.264 266.623,50.686L266.623,60.305C266.623,60.305 255.323,60.305 255.323,60.305C255.296,60.305 255.274,60.283 255.274,60.256C255.274,58.455 255.274,56.316 255.274,54.515C255.274,54.502 255.279,54.489 255.288,54.48C255.298,54.47 255.31,54.465 255.323,54.465L260.116,54.465C262.674,54.465 264.748,52.391 264.748,49.833L264.746,49.642Z" style="fill:white;"/>
            </g>
        </g>
    </g>
</svg>
