<?xml version="1.0" encoding="UTF-8" standalone="no"?>
<!DOCTYPE svg PUBLIC "-//W3C//DTD SVG 1.1//EN" "http://www.w3.org/Graphics/SVG/1.1/DTD/svg11.dtd">
<svg width="100%" height="100%" viewBox="0 0 31 30" version="1.1" xmlns="http://www.w3.org/2000/svg" xmlns:xlink="http://www.w3.org/1999/xlink" xml:space="preserve" xmlns:serif="http://www.serif.com/" style="fill-rule:evenodd;clip-rule:evenodd;stroke-linejoin:round;stroke-miterlimit:2;">
    <g transform="matrix(1,0,0,1,-604,0)">
        <g id="info" transform="matrix(1,0,0,1,604.846,0)">
            <rect x="0" y="0" width="30" height="30" style="fill:none;"/>
            <g transform="matrix(1,0,0,1,-604.846,0)">
                <path d="M619.846,4.5C625.641,4.5 630.346,9.205 630.346,15C630.346,20.795 625.641,25.5 619.846,25.5C614.051,25.5 609.346,20.795 609.346,15C609.346,9.205 614.051,4.5 619.846,4.5ZM619.846,8.3C623.543,8.3 626.546,11.302 626.546,15C626.546,18.698 623.543,21.7 619.846,21.7C616.148,21.7 613.146,18.698 613.146,15C613.146,11.302 616.148,8.3 619.846,8.3ZM618.596,14.055L618.596,19.74L621.096,19.74L621.096,14.055L618.596,14.055ZM618.596,10.263L618.596,12.725L621.096,12.725L621.096,10.263L618.596,10.263Z" style="fill:white;"/>
            </g>
        </g>
    </g>
</svg>
