<svg width="100%" height="100%" viewBox="0 0 31 30" version="1.1" xmlns="http://www.w3.org/2000/svg" style="fill-rule:evenodd;clip-rule:evenodd;stroke-linejoin:round;stroke-miterlimit:2;">
    <g transform="matrix(1,0,0,1,-71,0)">
        <g id="newnode" transform="matrix(1,0,0,1,71.2061,0)">
            <rect x="0" y="0" width="30" height="30" style="fill:none;"/>
            <clipPath id="_clip1">
                <rect x="0" y="0" width="30" height="30"/>
            </clipPath>
            <g clip-path="url(#_clip1)">
                <g transform="matrix(1,0,0,1,-71.2061,0)">
                    <path d="M84.225,5.463L76.736,5.463L76.736,24.608L95.766,24.608L95.766,16.94L91.966,16.94L91.966,20.808C91.966,20.808 80.536,20.808 80.536,20.808C80.536,20.808 80.536,9.263 80.536,9.263C80.536,9.263 84.225,9.263 84.225,9.263L84.225,5.463ZM95.766,5.463L95.766,0L91.966,0L91.966,5.463L86.525,5.463L86.525,9.263L91.966,9.263L91.966,14.725L95.766,14.725L95.766,9.263L101.206,9.263L101.206,5.463L95.766,5.463Z" style="fill:white;"/>
                </g>
            </g>
        </g>
    </g>
</svg>
