<svg width="100%" height="100%" viewBox="0 0 30 30" version="1.1" xmlns="http://www.w3.org/2000/svg" style="fill-rule:evenodd;clip-rule:evenodd;stroke-linejoin:round;stroke-miterlimit:2;">
    <g transform="matrix(1,0,0,1,-604.846,-38.9972)">
        <g id="person" transform="matrix(1,0,0,1,604.846,38.9972)">
            <rect x="0" y="0" width="30" height="30" style="fill:none;"/>
            <g transform="matrix(1,0,0,1,-604.846,-38.9972)">
                <path d="M614.112,63.472C614.112,60.311 616.677,57.745 619.838,57.745C622.998,57.745 625.564,60.311 625.564,63.472L629.364,63.472C629.364,58.214 625.096,53.945 619.838,53.945C614.58,53.945 610.312,58.214 610.312,63.472L614.112,63.472ZM619.838,43.655C622.408,43.655 624.496,45.742 624.496,48.313C624.496,50.883 622.408,52.97 619.838,52.97C617.267,52.97 615.18,50.883 615.18,48.313C615.18,45.742 617.267,43.655 619.838,43.655ZM619.838,47.455C620.311,47.455 620.696,47.839 620.696,48.313C620.696,48.786 620.311,49.17 619.838,49.17C619.364,49.17 618.98,48.786 618.98,48.313C618.98,47.839 619.364,47.455 619.838,47.455Z" style="fill:white;"/>
            </g>
        </g>
    </g>
</svg>
