<?xml version="1.0" encoding="UTF-8" standalone="no"?>
<!DOCTYPE svg PUBLIC "-//W3C//DTD SVG 1.1//EN" "http://www.w3.org/Graphics/SVG/1.1/DTD/svg11.dtd">
<svg width="100%" height="100%" viewBox="0 0 31 31" version="1.1" xmlns="http://www.w3.org/2000/svg" xmlns:xlink="http://www.w3.org/1999/xlink" xml:space="preserve" xmlns:serif="http://www.serif.com/" style="fill-rule:evenodd;clip-rule:evenodd;stroke-linejoin:round;stroke-miterlimit:2;">
    <g transform="matrix(1,0,0,1,-179,-39)">
        <g id="play-print" transform="matrix(1,0,0,1,179.34,39.6309)">
            <rect x="0" y="0" width="30" height="30" style="fill:none;"/>
            <g transform="matrix(1,0,0,1,-179.34,-39.6309)">
                <path d="M190.483,60.296L184.866,55.298L184.866,65.295L190.483,60.296ZM197.55,60.303L193.28,64.103L203.815,64.103L203.815,60.303L197.55,60.303ZM189.056,52.731L193.326,56.531L203.815,56.531L203.815,52.731L189.056,52.731ZM184.866,48.962L203.815,48.962L203.815,45.162L184.866,45.162L184.866,48.962Z" style="fill:white;"/>
            </g>
        </g>
    </g>
</svg>
