<svg width="100%" height="100%" viewBox="0 0 31 30" version="1.1" xmlns="http://www.w3.org/2000/svg" style="fill-rule:evenodd;clip-rule:evenodd;stroke-linejoin:round;stroke-miterlimit:2;">
    <g transform="matrix(1,0,0,1,-282,0)">
        <g id="properties" transform="matrix(1,0,0,1,282.059,0)">
            <rect x="0" y="0" width="30" height="30" style="fill:none;"/>
            <g transform="matrix(1,0,0,1,-282.059,0)">
                <path d="M287.585,24.514L291.375,24.514L291.375,20.714L287.585,20.714L287.585,24.514ZM294.953,24.514L306.534,24.514L306.534,20.714L294.953,20.714L294.953,24.514ZM287.585,16.891L291.375,16.891L291.375,13.091L287.585,13.091L287.585,16.891ZM294.953,16.891L306.534,16.891L306.534,13.091L294.953,13.091L294.953,16.891ZM294.953,9.268L306.534,9.268L306.534,5.468L294.953,5.468L294.953,9.268ZM287.585,9.268L291.375,9.268L291.375,5.468L287.585,5.468L287.585,9.268Z" style="fill:white;"/>
            </g>
        </g>
    </g>
</svg>
