<svg width="100%" height="100%" viewBox="0 0 31 30" version="1.1" xmlns="http://www.w3.org/2000/svg" style="fill-rule:evenodd;clip-rule:evenodd;stroke-linejoin:round;stroke-miterlimit:2;">
    <g transform="matrix(1,0,0,1,-178,0)">
        <g id="refresh" transform="matrix(1,0,0,1,178.685,0)">
            <rect x="0" y="0" width="30" height="30" style="fill:none;"/>
            <g transform="matrix(1,0,0,1,-178.685,0)">
                <path d="M199.412,10.042C201.379,12.315 201.879,15.648 200.414,18.48C198.495,22.194 193.921,23.65 190.207,21.73C186.494,19.81 185.038,15.237 186.957,11.523C188.326,8.876 191.044,7.376 193.837,7.428L193.908,3.629C189.715,3.551 185.636,5.804 183.582,9.778C180.699,15.355 182.886,22.223 188.462,25.106C194.039,27.989 200.907,25.802 203.79,20.225C206.016,15.92 205.219,10.844 202.174,7.427L205.093,7.428L205.094,3.628L195.626,3.625L195.605,12.984L199.405,12.993L199.412,10.042Z" style="fill:white;"/>
            </g>
        </g>
    </g>
</svg>
