<?xml version="1.0" encoding="UTF-8" standalone="no"?>
<!DOCTYPE svg PUBLIC "-//W3C//DTD SVG 1.1//EN" "http://www.w3.org/Graphics/SVG/1.1/DTD/svg11.dtd">
<svg width="100%" height="100%" viewBox="0 0 31 31" version="1.1" xmlns="http://www.w3.org/2000/svg" xmlns:xlink="http://www.w3.org/1999/xlink" xml:space="preserve" xmlns:serif="http://www.serif.com/" style="fill-rule:evenodd;clip-rule:evenodd;stroke-linejoin:round;stroke-miterlimit:2;">
    <g transform="matrix(1,0,0,1,-214,-39)">
        <g id="seive" transform="matrix(1,0,0,1,214.369,39.6309)">
            <rect x="0" y="0" width="30" height="30" style="fill:none;"/>
            <g transform="matrix(1,0,0,1,-214.369,-39.6309)">
                <path d="M229.37,43.258C223.092,43.258 217.995,48.355 217.995,54.633C217.995,60.911 223.092,66.008 229.37,66.008C235.648,66.008 240.745,60.911 240.745,54.633C240.745,48.355 235.648,43.258 229.37,43.258ZM234.046,60.591C232.758,61.604 231.134,62.208 229.37,62.208C227.606,62.208 225.982,61.604 224.694,60.591L234.046,60.591ZM236.843,55.881C236.712,56.665 236.462,57.408 236.11,58.091L222.63,58.091C222.278,57.408 222.028,56.664 221.898,55.881L236.843,55.881ZM236.108,51.171C236.46,51.854 236.711,52.597 236.842,53.381L221.898,53.381C222.029,52.597 222.28,51.854 222.632,51.171L236.108,51.171ZM234.041,48.671L224.699,48.671C225.986,47.66 227.608,47.058 229.37,47.058C231.132,47.058 232.754,47.66 234.041,48.671Z" style="fill:white;"/>
            </g>
        </g>
    </g>
</svg>
