<svg width="100%" height="100%" viewBox="0 0 31 31" version="1.1" xmlns="http://www.w3.org/2000/svg" style="fill-rule:evenodd;clip-rule:evenodd;stroke-linejoin:round;stroke-miterlimit:2;">
    <g transform="matrix(1,0,0,1,-492,-39)">
        <g id="state-write" transform="matrix(1,0,0,1,492.389,39.6309)">
            <rect x="0" y="0" width="30" height="30" style="fill:none;"/>
            <g transform="matrix(1,0,0,1,-492.389,-241.662)">
                <path d="M507.389,268.037C513.666,268.037 518.763,262.94 518.763,256.662C518.763,253.511 517.479,250.657 515.406,248.596L512.727,251.291C514.108,252.664 514.963,254.564 514.963,256.662C514.963,260.843 511.569,264.237 507.389,264.237L507.389,268.037ZM507.389,245.288C501.111,245.288 496.014,250.384 496.014,256.662C496.014,259.789 497.278,262.623 499.323,264.68L502.018,262.001C500.657,260.631 499.814,258.744 499.814,256.662C499.814,252.482 503.208,249.088 507.389,249.088L507.389,245.288ZM512.84,255.669C511.476,253.856 509.485,252.813 507.389,252.813C505.293,252.813 503.302,253.856 501.938,255.669C501.482,256.275 501.19,256.662 501.19,256.662C501.19,256.662 501.482,257.049 501.938,257.655C503.302,259.468 505.293,260.511 507.389,260.511C509.485,260.511 511.476,259.468 512.84,257.655C513.296,257.049 513.587,256.662 513.587,256.662C513.587,256.662 513.296,256.275 512.84,255.669ZM510.28,256.662C509.557,255.818 508.501,255.332 507.389,255.332C506.277,255.332 505.221,255.818 504.497,256.662L504.497,256.662C505.221,257.506 506.277,257.992 507.389,257.992C508.501,257.992 509.557,257.506 510.28,256.662L510.28,256.662Z" style="fill:white;"/>
            </g>
        </g>
    </g>
</svg>
