<svg width="100%" height="100%" viewBox="0 0 31 31" version="1.1" xmlns="http://www.w3.org/2000/svg" style="fill-rule:evenodd;clip-rule:evenodd;stroke-linejoin:round;stroke-miterlimit:2;">
    <g transform="matrix(1,0,0,1,-455,-39)">
        <g id="state-read" transform="matrix(1,0,0,1,455.694,39.6309)">
            <rect x="0" y="0" width="30" height="30" style="fill:none;"/>
            <g transform="matrix(1,0,0,1,-455.694,-39.6309)">
                <path d="M470.694,66.005C476.972,66.005 482.069,60.909 482.069,54.631C482.069,51.48 480.785,48.626 478.712,46.565L476.033,49.26C477.413,50.632 478.269,52.533 478.269,54.631C478.269,58.811 474.875,62.205 470.694,62.205L470.694,66.005ZM470.694,43.256C464.417,43.256 459.32,48.353 459.32,54.631C459.32,57.758 460.584,60.591 462.629,62.648L465.324,59.969C463.962,58.6 463.12,56.713 463.12,54.631C463.12,50.45 466.514,47.056 470.694,47.056L470.694,43.256ZM466.037,59.335L475.352,59.335L475.352,56.835L466.037,56.835L466.037,59.335ZM466.037,55.883L475.352,55.883L475.352,53.383L466.037,53.383L466.037,55.883ZM466.037,52.427L475.352,52.427L475.352,49.927L466.037,49.927L466.037,52.427Z" style="fill:white;"/>
            </g>
        </g>
    </g>
</svg>
