<?xml version="1.0" encoding="UTF-8" standalone="no"?>
<!DOCTYPE svg PUBLIC "-//W3C//DTD SVG 1.1//EN" "http://www.w3.org/Graphics/SVG/1.1/DTD/svg11.dtd">
<svg width="100%" height="100%" viewBox="0 0 31 30" version="1.1" xmlns="http://www.w3.org/2000/svg" xmlns:xlink="http://www.w3.org/1999/xlink" xml:space="preserve" xmlns:serif="http://www.serif.com/" style="fill-rule:evenodd;clip-rule:evenodd;stroke-linejoin:round;stroke-miterlimit:2;">
    <g transform="matrix(1,0,0,1,-213,0)">
        <g id="state" transform="matrix(1,0,0,1,213.143,0)">
            <rect x="0" y="0" width="30" height="30" style="fill:none;"/>
            <g transform="matrix(1,0,0,1,-213.143,0)">
                <path d="M228.143,26.374C234.421,26.374 239.518,21.278 239.518,15C239.518,11.849 238.234,8.995 236.161,6.934L233.482,9.629C234.862,11.002 235.718,12.902 235.718,15C235.718,19.18 232.324,22.574 228.143,22.574L228.143,26.374ZM228.143,3.626C221.865,3.626 216.769,8.722 216.769,15C216.769,18.127 218.033,20.96 220.078,23.017L222.773,20.338C221.411,18.969 220.569,17.082 220.569,15C220.569,10.82 223.963,7.426 228.143,7.426L228.143,3.626Z" style="fill:white;"/>
            </g>
        </g>
    </g>
</svg>
