<svg width="100%" height="100%" viewBox="0 0 31 31" version="1.1" xmlns="http://www.w3.org/2000/svg" style="fill-rule:evenodd;clip-rule:evenodd;stroke-linejoin:round;stroke-miterlimit:2;">
    <g transform="matrix(1,0,0,1,-35,-39)">
        <g id="switch" transform="matrix(1,0,0,1,35.3251,39.0462)">
            <rect x="0" y="0" width="30" height="30" style="fill:none;"/>
            <g transform="matrix(1,0,0,1,-35.3251,-39.0462)">
                <path d="M51.165,50.262L52.951,50.262C55.05,50.262 56.751,51.963 56.751,54.062C56.751,54.062 56.751,54.062 56.751,54.063C56.751,56.162 55.05,57.863 52.951,57.863L51.157,57.863C50.374,55.65 48.262,54.063 45.782,54.063C42.636,54.063 40.082,56.617 40.082,59.763C40.082,62.909 42.636,65.463 45.782,65.463C48.262,65.463 50.374,63.876 51.157,61.663L52.951,61.663C57.149,61.663 60.551,58.26 60.551,54.063C60.551,54.062 60.551,54.062 60.551,54.062C60.551,49.864 57.149,46.462 52.951,46.462L51.165,46.462C50.382,44.249 48.27,42.662 45.79,42.662C42.644,42.662 40.09,45.216 40.09,48.362C40.09,51.508 42.644,54.062 45.79,54.062C48.27,54.062 50.382,52.474 51.165,50.262ZM45.782,61.663C44.734,61.663 43.882,60.811 43.882,59.763C43.882,58.714 44.734,57.863 45.782,57.863C46.831,57.863 47.682,58.714 47.682,59.763C47.682,60.811 46.831,61.663 45.782,61.663L45.782,61.663ZM45.79,46.462C46.839,46.462 47.69,47.313 47.69,48.362C47.69,49.41 46.839,50.262 45.79,50.262C44.742,50.262 43.89,49.41 43.89,48.362C43.89,47.313 44.742,46.462 45.79,46.462L45.79,46.462Z" style="fill:white;"/>
            </g>
        </g>
    </g>
</svg>
