<svg width="100%" height="100%" viewBox="0 0 31 30" version="1.1" xmlns="http://www.w3.org/2000/svg" style="fill-rule:evenodd;clip-rule:evenodd;stroke-linejoin:round;stroke-miterlimit:2;">
    <g transform="matrix(1,0,0,1,-143,0)">
        <g id="text" transform="matrix(1,0,0,1,143.361,0)">
            <rect x="0" y="0" width="30" height="30" style="fill:none;"/>
            <g transform="matrix(1,0,0,1,-143.361,0)">
                <path d="M148.887,24.608L152.676,24.608L152.676,20.808L148.887,20.808L148.887,24.608ZM156.361,24.608L167.835,24.608L167.835,20.808L156.361,20.808L156.361,24.608ZM164.046,16.97L167.835,16.97L167.835,13.17L164.046,13.17L164.046,16.97ZM148.887,16.97L160.361,16.97L160.361,13.17L148.887,13.17L148.887,16.97ZM148.887,9.331L155.338,9.331L155.338,5.531L148.887,5.531L148.887,9.331ZM159.128,9.331L167.835,9.331L167.835,5.531L159.128,5.531L159.128,9.331Z" style="fill:white;"/>
            </g>
        </g>
    </g>
</svg>
