<svg width="100%" height="100%" viewBox="0 0 30 30" version="1.1" xmlns="http://www.w3.org/2000/svg" style="fill-rule:evenodd;clip-rule:evenodd;stroke-linejoin:round;stroke-miterlimit:2;">
    <g transform="matrix(1,0,0,1,-672.575,0)">
        <g id="tiles" transform="matrix(1,0,0,1,672.575,0)">
            <rect x="0" y="0" width="30" height="30" style="fill:none;"/>
            <g transform="matrix(1,0,0,1,-672.575,0)">
                <path d="M685.412,17.163L678.101,17.163L678.101,24.474L685.412,24.474L685.412,17.163ZM697.05,17.163L689.738,17.163L689.738,24.474L697.05,24.474L697.05,17.163ZM697.05,5.526L689.738,5.526L689.738,12.837L697.05,12.837L697.05,5.526ZM685.412,5.526L678.101,5.526L678.101,12.837L685.412,12.837L685.412,5.526Z" style="fill:white;"/>
            </g>
        </g>
    </g>
</svg>
