<?xml version="1.0" encoding="UTF-8" standalone="no"?>
<!DOCTYPE svg PUBLIC "-//W3C//DTD SVG 1.1//EN" "http://www.w3.org/Graphics/SVG/1.1/DTD/svg11.dtd">
<svg width="100%" height="100%" viewBox="0 0 31 31" version="1.1" xmlns="http://www.w3.org/2000/svg" xmlns:xlink="http://www.w3.org/1999/xlink" xml:space="preserve" xmlns:serif="http://www.serif.com/" style="fill-rule:evenodd;clip-rule:evenodd;stroke-linejoin:round;stroke-miterlimit:2;">
    <g transform="matrix(1,0,0,1,-384,-39)">
        <g id="moon" transform="matrix(1,0,0,1,384.532,39.6309)">
            <rect x="0" y="0" width="30" height="30" style="fill:none;"/>
            <g transform="matrix(1,0,0,1,-384.532,-39.6309)">
                <path d="M407.808,52.035C407.808,56.602 404.1,60.31 399.532,60.31C394.965,60.31 391.257,56.602 391.257,52.035L387.457,52.035C387.457,58.7 392.868,64.11 399.532,64.11C406.197,64.11 411.608,58.7 411.608,52.035L407.808,52.035ZM399.532,45.156C403.329,45.156 406.411,48.239 406.411,52.035C406.411,55.832 403.329,58.914 399.532,58.914C395.736,58.914 392.654,55.832 392.654,52.035C392.654,48.239 395.736,45.156 399.532,45.156ZM399.532,48.956C401.232,48.956 402.611,50.336 402.611,52.035C402.611,53.735 401.232,55.114 399.532,55.114C397.833,55.114 396.454,53.735 396.454,52.035C396.454,50.336 397.833,48.956 399.532,48.956Z" style="fill:white;"/>
            </g>
        </g>
    </g>
</svg>
