<svg width="100%" height="100%" viewBox="0 0 779 204" version="1.1" xmlns="http://www.w3.org/2000/svg" xmlns:xlink="http://www.w3.org/1999/xlink" xml:space="preserve" xmlns:serif="http://www.serif.com/" style="fill-rule:evenodd;clip-rule:evenodd;stroke-linejoin:round;stroke-miterlimit:2;">
    <g id="Layer-1" serif:id="Layer 1" transform="matrix(1,0,0,1,-610.999,-898.394)">
        <g transform="matrix(1,0,0,1,937.648,1046.86)">
            <path d="M0,-93.725L0,0L-5.623,0L-69.489,-81.407L-69.489,0L-76.318,0L-76.318,-93.725L-70.561,-93.725L-6.828,-12.319L-6.828,-93.725L0,-93.725Z" style="fill:white;fill-rule:nonzero;"/>
        </g>
        <g transform="matrix(1,0,0,1,1055.88,953.137)">
            <path d="M0,93.725L-32.268,50.344L-64.401,93.725L-72.436,93.725L-36.419,45.39L-69.892,0L-61.857,0L-32,40.302L-2.143,0L5.489,0L-27.983,45.256L8.034,93.725L0,93.725Z" style="fill:white;fill-rule:nonzero;"/>
        </g>
        <g transform="matrix(1,0,0,1,1171.29,959.297)">
            <path d="M0,81.406L0,87.565L-64.671,87.565L-64.671,-6.159L-2.01,-6.159L-2.01,0L-57.843,0L-57.843,36.954L-7.9,36.954L-7.9,42.979L-57.843,42.979L-57.843,81.406L0,81.406Z" style="fill:white;fill-rule:nonzero;"/>
        </g>
        <g transform="matrix(1,0,0,1,1280.55,953.137)">
            <path d="M0,93.725L-32.27,50.344L-64.403,93.725L-72.437,93.725L-36.419,45.39L-69.893,0L-61.859,0L-32.001,40.302L-2.144,0L5.489,0L-27.983,45.256L8.033,93.725L0,93.725Z" style="fill:white;fill-rule:nonzero;"/>
        </g>
        <g transform="matrix(1,0,0,1,1348.43,1040.7)">
            <path d="M0,-81.405L-33.741,-81.405L-33.741,-87.565L40.568,-87.565L40.568,-81.405L6.828,-81.405L6.828,6.16L0,6.16L0,-81.405Z" style="fill:white;fill-rule:nonzero;"/>
        </g>
        <g transform="matrix(1,0,0,1,721.886,1014.05)">
            <path d="M0,-3.778L-6.814,-7.583L-13.629,-3.778L0,3.805L6.814,0.014L0,-3.778Z" style="fill:white;fill-rule:nonzero;"/>
        </g>
        <g transform="matrix(1,0,0,1,673.31,1037.31)">
            <path d="M0,-138.913L-62.311,-104.231L-62.311,-34.682L-27.178,-15.127L-27.178,-22.71L-55.682,-38.58L-55.682,-100.333L0,-131.33L55.682,-100.333L55.682,-38.58L41.761,-30.837L34.946,-27.033L0,-7.583L-7.292,-11.64L-7.292,-4.057L0,0L41.761,-23.241L48.575,-27.033L62.311,-34.682L62.311,-104.231L0,-138.913Z" style="fill:white;fill-rule:nonzero;"/>
        </g>
        <g transform="matrix(1,0,0,1,756.833,1037.31)">
            <path d="M0,-138.913L-34.947,-119.464L-28.133,-115.672L0,-131.33L55.682,-100.333L55.682,-38.58L20.549,-19.025L13.92,-15.327L0,-7.583L-28.133,-23.241L-34.947,-19.45L0,0L13.92,-7.743L20.549,-11.442L62.311,-34.682L62.311,-104.231L0,-138.913Z" style="fill:white;fill-rule:nonzero;"/>
        </g>
        <g transform="matrix(0,1,1,0,745.531,972.762)">
            <path d="M-9.91,-16.539L12.853,-16.539L16.539,-9.91L-6.211,-9.91L-9.91,-16.539Z" style="fill:white;fill-rule:nonzero;"/>
        </g>
        <g transform="matrix(1,0,0,1,770.753,1050.06)">
            <path d="M0,-28.08L0,12.966L-55.682,43.962L-111.363,12.966L-111.363,-48.788L-76.23,-68.343L-76.23,-75.926L-117.991,-52.685L-117.991,16.863L-55.682,51.545L6.629,16.863L6.629,-31.778L0,-28.08ZM-41.761,-79.625L-41.761,-72.028L-35.132,-68.343L-35.132,-75.926L-41.761,-79.625Z" style="fill:white;fill-rule:nonzero;"/>
        </g>
    </g>
</svg>
