<?xml version="1.0" encoding="UTF-8" standalone="no"?>
<!DOCTYPE svg PUBLIC "-//W3C//DTD SVG 1.1//EN" "http://www.w3.org/Graphics/SVG/1.1/DTD/svg11.dtd">
<svg width="100%" height="100%" viewBox="0 0 31 31" version="1.1" xmlns="http://www.w3.org/2000/svg" xmlns:xlink="http://www.w3.org/1999/xlink" xml:space="preserve" xmlns:serif="http://www.serif.com/" style="fill-rule:evenodd;clip-rule:evenodd;stroke-linejoin:round;stroke-miterlimit:2;">
    <g transform="matrix(1,0,0,1,-143,-39)">
        <g id="water-play" transform="matrix(1,0,0,1,143.656,39.6309)">
            <rect x="0" y="0" width="30" height="30" style="fill:none;"/>
            <clipPath id="_clip1">
                <rect x="0" y="0" width="30" height="30"/>
            </clipPath>
            <g clip-path="url(#_clip1)">
                <g transform="matrix(1,0,0,1,-143.656,-39.6309)">
                    <path d="M152.971,60.296L147.354,55.298L147.354,65.295L152.971,60.296ZM155.971,58.418L162.717,64.66L166.739,60.938L171.09,64.964L173.67,62.175L166.739,55.761L162.717,59.483L158.551,55.628L155.971,58.418ZM146.122,53.595L150.287,49.741C150.287,49.741 154.309,53.462 154.309,53.462L158.556,49.533C158.556,49.533 162.883,53.537 162.883,53.537L167.048,49.684L171.189,53.516L173.77,50.727L167.048,44.507L162.883,48.36C162.883,48.36 158.556,44.356 158.556,44.356L154.309,48.285C154.309,48.285 150.287,44.564 150.287,44.564L143.541,50.806L146.122,53.595Z" style="fill:white;"/>
                </g>
            </g>
        </g>
    </g>
</svg>
