<svg xmlns="http://www.w3.org/2000/svg" xmlns:xlink="http://www.w3.org/1999/xlink" viewBox="0 0 422.93 372.16"><defs><style>.cls-1{fill:url(#linear-gradient);}.cls-2{fill:url(#linear-gradient-2);}.cls-3{fill:url(#linear-gradient-3);}</style><linearGradient id="linear-gradient" x1="211.46" y1="297.64" x2="211.46" y2="196.69" gradientUnits="userSpaceOnUse"><stop offset="0" stop-color="#21c2e9"/><stop offset="1" stop-color="#c6e8f0"/></linearGradient><linearGradient id="linear-gradient-2" x1="211.46" y1="391.3" x2="211.46" y2="40" xlink:href="#linear-gradient"/><linearGradient id="linear-gradient-3" x1="211.46" y1="391.3" x2="211.46" y2="-707.07" xlink:href="#linear-gradient"/></defs><g id="Layer_2" data-name="Layer 2"><g id="Layer_1-2" data-name="Layer 1"><circle class="cls-1" cx="211.46" cy="258.66" r="45.03"/><path class="cls-2" d="M244.06,372.16h-65.2V342.44A22.14,22.14,0,0,1,201,320.29h20.89a22.14,22.14,0,0,1,22.15,22.15Z"/><path class="cls-3" d="M401,372.16H363.64L284.42,234.93,211.19,108.05,145,222.74,58.74,372.16H21.92A21.89,21.89,0,0,1,3,339.33L192.5,11a21.89,21.89,0,0,1,37.92,0L420,339.33A21.88,21.88,0,0,1,401,372.16Z"/></g></g></svg>